<svg width="55" height="81" viewBox="0 0 55 81" fill="none" xmlns="http://www.w3.org/2000/svg">
<path d="M16.0918 53.0236H38.8549M15.9378 65.8552H39.0345M9.52203 40.1921C8.25932 40.2166 7.02201 40.5513 5.91919 41.1668C4.81636 41.7823 3.88189 42.6597 3.19815 43.7215C2.5144 44.7834 2.10239 45.9972 1.99842 47.2558C1.89446 48.5145 2.10173 49.7794 2.60198 50.9391C3.10222 52.0987 3.88007 53.1175 4.86696 53.9056C5.85385 54.6937 7.01946 55.2269 8.26105 55.4583C9.50263 55.6896 10.7821 55.6119 11.9866 55.2321C13.191 54.8523 14.2836 54.182 15.1679 53.2803C20.0439 47.891 27.4861 40.1921 27.4861 40.1921C27.4861 40.1921 34.9284 47.891 39.8044 53.2803C40.6887 54.182 41.7813 54.8523 42.9857 55.2321C44.1902 55.6119 45.4697 55.6896 46.7112 55.4583C47.9528 55.2269 49.1184 54.6937 50.1053 53.9056C51.0922 53.1175 51.8701 52.0987 52.3703 50.9391C52.8706 49.7794 53.0778 48.5145 52.9739 47.2558C52.8699 45.9972 52.4579 44.7834 51.7741 43.7215C51.0904 42.6597 50.1559 41.7823 49.0531 41.1668C47.9503 40.5513 46.713 40.2166 45.4503 40.1921H9.52203Z" stroke="#FFD322" stroke-width="2.73607" stroke-linecap="round" stroke-linejoin="round"/>
<path d="M36.4683 49.6871C38.778 51.9967 40.0612 55.0763 40.3178 58.1559C40.3178 73.0404 27.4863 78.6863 27.4863 78.6863C27.4863 78.6863 14.6548 73.0404 14.6548 58.1559C14.9114 55.0763 16.1946 51.9967 18.5042 49.6871" stroke="#FFD322" stroke-width="2.73607" stroke-linecap="round" stroke-linejoin="round"/>
<path d="M25.8378 0.0443687C18.7107 0.917786 13.0161 5.82639 11.1295 12.7089C10.7801 13.9492 10.7277 14.5955 10.7277 16.9712C10.7277 19.3294 10.7976 19.9932 11.1295 21.2509C11.6885 23.3471 13.0335 25.9499 14.5009 27.8015C17.5054 31.5922 18.9029 34.2648 19.8986 38.1603C20.2829 39.6625 19.8811 39.5927 27.5847 39.5927C35.2882 39.5927 34.8864 39.6625 35.2707 38.1603C36.2664 34.2648 37.6639 31.5922 40.6684 27.8015C42.1358 25.9499 43.4808 23.3471 44.0398 21.2509C44.3717 19.9932 44.4416 19.3294 44.4416 16.9712C44.4416 14.5955 44.3892 13.9492 44.0398 12.7089C42.3454 6.52512 37.4193 1.75626 31.3054 0.393734C30.0128 0.114243 26.9383 -0.0953789 25.8378 0.0443687ZM30.4495 2.57728C32.5107 2.92664 34.9738 4.07956 36.8778 5.5993C39.0089 7.29373 40.9479 10.2808 41.7689 13.1456C42.3279 15.137 42.3279 18.8054 41.7689 20.7967C41.2274 22.6833 40.057 24.8843 38.6072 26.701C36.1965 29.758 34.4846 32.7101 33.716 35.2431C33.192 36.8851 32.7553 37.3218 31.6198 37.3218C31.0609 37.3218 30.694 37.2344 30.5543 37.0598C30.3621 36.8327 30.8512 34.8238 33.4365 25.1464L36.5634 13.5125L36.1616 13.198C35.9345 13.0059 35.7074 12.8661 35.6376 12.8661C35.2707 12.8661 34.8864 13.4251 34.6244 14.3509C34.4672 14.9274 34.2576 15.5038 34.1702 15.6087C33.8558 16.0454 33.0872 15.8532 32.4758 15.2243C31.7421 14.4732 30.8163 14.1762 29.8905 14.4208C29.5236 14.5256 28.9647 14.875 28.6328 15.2243C28.2485 15.6087 27.8816 15.8357 27.5847 15.8357C27.2877 15.8357 26.9209 15.6087 26.5366 15.2243C25.8029 14.4732 24.8771 14.1762 23.9512 14.4208C23.5844 14.5256 23.0254 14.875 22.6935 15.2243C22.0821 15.8532 21.3135 16.0454 20.9991 15.6087C20.9118 15.5038 20.7021 14.9274 20.5449 14.3509C20.2829 13.4251 19.8986 12.8661 19.5318 12.8661C19.4619 12.8661 19.2348 13.0059 19.0077 13.198L18.6059 13.5125L21.7328 25.1464C24.3181 34.8063 24.8072 36.8327 24.615 37.0598C24.3006 37.4266 22.8333 37.4091 22.3616 37.0074C22.152 36.8501 21.7852 36.1165 21.5406 35.4003C20.5973 32.5879 18.8854 29.6182 16.4748 26.5788C15.1123 24.8843 13.9419 22.6659 13.4004 20.7967C12.8414 18.8054 12.8414 15.137 13.4004 13.1456C14.2389 10.2284 16.1254 7.3636 18.3439 5.58183C21.855 2.7869 25.8378 1.80867 30.4495 2.57728ZM25.6282 16.6043C26.7636 17.8097 28.1611 17.8446 29.4188 16.6917C30.3447 15.8357 30.8163 15.8183 31.5674 16.6218C31.8993 16.9712 32.4583 17.3205 32.8776 17.4428C33.2793 17.5476 33.6287 17.6699 33.6636 17.6874C33.6986 17.7049 32.5631 21.9846 31.1657 27.2076C28.5454 37.0423 28.4406 37.3218 27.5847 37.3218C26.7287 37.3218 26.6239 37.0423 23.9862 27.2076C22.5887 21.9846 21.4707 17.7049 21.5057 17.6874C21.5406 17.6699 21.89 17.5476 22.2918 17.4428C22.711 17.3205 23.27 16.9712 23.6019 16.6218C24.3355 15.8183 24.8945 15.8183 25.6282 16.6043Z" fill="#FFD322"/>
</svg>
