<svg width="170" height="121" viewBox="0 0 170 121" fill="none" xmlns="http://www.w3.org/2000/svg">
<path d="M11.9968 115.362C9.76624 115.362 7.86724 114.94 6.2998 114.096C4.73237 113.232 3.53671 112.026 2.7128 110.479C1.90899 108.911 1.50708 107.082 1.50708 104.993C1.50708 102.923 1.90899 101.074 2.7128 99.4463C3.51661 97.7985 4.69218 96.5023 6.23952 95.5578C7.78685 94.6134 9.65571 94.1411 11.8461 94.1411C13.3934 94.1411 14.6996 94.3622 15.7647 94.8043C16.8498 95.2464 17.6838 95.7688 18.2665 96.3717C18.568 96.653 18.789 96.9444 18.9297 97.2458C19.0904 97.5272 19.1708 97.8286 19.1708 98.1501C19.1708 98.5721 19.0402 98.9037 18.779 99.1448C18.5378 99.386 18.2263 99.5066 17.8445 99.5066C17.4627 99.5066 17.1111 99.3759 16.7895 99.1147C16.468 98.8334 16.1063 98.5219 15.7044 98.1803C15.3226 97.8185 14.8302 97.5071 14.2274 97.2458C13.6245 96.9645 12.8107 96.8238 11.7858 96.8238C10.2586 96.8238 8.97248 97.1655 7.92752 97.8487C6.88257 98.5319 6.0888 99.4764 5.54623 100.682C5.00366 101.888 4.73237 103.264 4.73237 104.812C4.73237 106.359 5.01371 107.726 5.57637 108.911C6.15914 110.097 7.01319 111.021 8.13852 111.684C9.28395 112.347 10.7007 112.679 12.3887 112.679C13.514 112.679 14.5991 112.538 15.6441 112.257C16.7092 111.956 17.734 111.544 18.7187 111.021V113.674C17.935 114.136 16.9804 114.538 15.8551 114.879C14.7499 115.201 13.4638 115.362 11.9968 115.362ZM21.8408 115V99.9286H24.6743V115H21.8408ZM24.6743 106.892L24.0413 103.606C24.5235 102.219 25.1465 101.205 25.9101 100.562C26.6737 99.8984 27.4876 99.5668 28.3517 99.5668C28.7737 99.5668 29.1455 99.6372 29.467 99.7778C29.8086 99.9185 30.0698 100.13 30.2507 100.411C30.4516 100.672 30.5521 101.004 30.5521 101.406C30.5521 101.888 30.4215 102.25 30.1603 102.491C29.899 102.732 29.5675 102.852 29.1655 102.852C28.8641 102.852 28.5828 102.812 28.3215 102.732C28.0603 102.631 27.789 102.581 27.5077 102.581C26.6637 102.581 25.9804 102.983 25.458 103.787C24.9355 104.591 24.6743 105.626 24.6743 106.892ZM38.9796 115.362C36.5481 115.362 34.6592 114.699 33.3128 113.372C31.9664 112.026 31.2932 110.157 31.2932 107.766C31.2932 106.118 31.6147 104.681 32.2578 103.455C32.9008 102.229 33.785 101.275 34.9104 100.592C36.0558 99.9085 37.372 99.5668 38.8591 99.5668C40.105 99.5668 41.17 99.7879 42.0542 100.23C42.9585 100.672 43.6418 101.265 44.1039 102.008C44.5862 102.752 44.8274 103.566 44.8274 104.45C44.8274 105.294 44.6164 106.007 44.1944 106.59C43.7724 107.153 43.1796 107.595 42.4159 107.916C41.6523 108.238 40.7681 108.449 39.7634 108.549C38.7787 108.63 37.7237 108.61 36.5984 108.489C35.473 108.369 34.3175 108.158 33.1319 107.856V105.957C34.2573 106.238 35.3424 106.429 36.3874 106.53C37.4323 106.61 38.3667 106.6 39.1906 106.5C40.0346 106.379 40.6978 106.138 41.1801 105.776C41.6825 105.415 41.9337 104.912 41.9337 104.269C41.9337 103.606 41.6624 103.033 41.1198 102.551C40.5973 102.049 39.8337 101.797 38.8289 101.797C37.9447 101.797 37.151 102.029 36.4476 102.491C35.7644 102.933 35.2218 103.586 34.8199 104.45C34.418 105.314 34.2171 106.359 34.2171 107.585C34.2171 108.77 34.408 109.765 34.7898 110.569C35.1716 111.373 35.7343 111.986 36.4778 112.408C37.2213 112.83 38.1658 113.041 39.3112 113.041C40.1552 113.041 41.0093 112.93 41.8734 112.709C42.7375 112.488 43.5915 112.157 44.4355 111.714V113.915C43.7925 114.297 43.0188 114.638 42.1145 114.94C41.2102 115.221 40.1653 115.362 38.9796 115.362ZM60.2744 115H57.4109C57.2702 114.699 57.1496 114.256 57.0491 113.674C56.9688 113.091 56.9286 112.468 56.9286 111.805L56.7176 111.112V104.48C56.7176 103.516 56.4362 102.862 55.8736 102.521C55.3109 102.159 54.5774 101.978 53.6731 101.978C52.8492 101.978 52.1861 102.079 51.6837 102.28C51.2014 102.481 50.8096 102.722 50.5081 103.003C50.2067 103.264 49.9254 103.495 49.6641 103.696C49.423 103.897 49.1417 103.998 48.8201 103.998C48.4584 103.998 48.167 103.907 47.946 103.727C47.745 103.526 47.6446 103.244 47.6446 102.883C47.6446 102.621 47.7048 102.35 47.8254 102.069C47.9661 101.787 48.1972 101.506 48.5187 101.225C49.6641 100.119 51.3823 99.5668 53.6731 99.5668C54.8788 99.5668 55.9138 99.7276 56.7779 100.049C57.662 100.371 58.3453 100.913 58.8276 101.677C59.3299 102.44 59.5811 103.445 59.5811 104.691V110.569C59.5811 111.513 59.6414 112.368 59.762 113.131C59.9027 113.895 60.0735 114.518 60.2744 115ZM51.8646 115.362C50.4378 115.362 49.2924 114.98 48.4283 114.216C47.5642 113.453 47.1321 112.408 47.1321 111.081C47.1321 109.876 47.5139 108.931 48.2776 108.248C49.0412 107.545 50.1766 107.042 51.6837 106.741L54.4267 106.228C55.3712 106.027 55.9841 105.816 56.2654 105.595C56.5669 105.374 56.7176 105.033 56.7176 104.571V107.163C56.5769 107.304 56.3559 107.444 56.0544 107.585C55.7731 107.726 55.341 107.866 54.7583 108.007L52.6784 108.429C51.9349 108.57 51.322 108.831 50.8397 109.213C50.3775 109.574 50.1464 110.127 50.1464 110.87C50.1464 111.594 50.3775 112.167 50.8397 112.589C51.322 112.99 51.955 113.191 52.7387 113.191C53.4219 113.191 54.065 113.031 54.6678 112.709C55.2908 112.388 55.7831 111.915 56.1448 111.292C56.5267 110.649 56.7176 109.906 56.7176 109.062L57.2601 111.564C56.818 112.89 56.1047 113.855 55.12 114.457C54.1353 115.06 53.0502 115.362 51.8646 115.362ZM71.5057 114.759C71.0636 114.94 70.6014 115.08 70.1191 115.181C69.657 115.301 69.1546 115.362 68.612 115.362C67.3058 115.362 66.291 114.98 65.5676 114.216C64.8441 113.453 64.4824 112.287 64.4824 110.72V102.461H63.3069C62.9049 102.461 62.5834 102.36 62.3423 102.159C62.1011 101.938 61.9806 101.647 61.9806 101.285C61.9806 100.963 62.081 100.682 62.282 100.441C62.4829 100.18 62.7844 99.9386 63.1863 99.7176L67.3159 97.276V99.9286H72.1086V102.461H67.3159V110.328C67.3159 111.232 67.4867 111.875 67.8283 112.257C68.1699 112.639 68.6823 112.83 69.3656 112.83C69.7273 112.83 70.079 112.79 70.4206 112.709C70.7622 112.609 71.1239 112.488 71.5057 112.347V114.759ZM73.4167 107.615C73.4167 105.987 73.7282 104.581 74.3512 103.395C74.9942 102.189 75.8784 101.255 77.0037 100.592C78.1492 99.9085 79.4855 99.5668 81.0127 99.5668C82.4797 99.5668 83.7658 99.8884 84.871 100.531C85.9964 101.154 86.8705 102.049 87.4935 103.214C88.1365 104.36 88.458 105.726 88.458 107.314C88.458 108.921 88.1365 110.328 87.4935 111.534C86.8705 112.739 85.9964 113.684 84.871 114.367C83.7457 115.03 82.4094 115.362 80.862 115.362C79.3951 115.362 78.0989 115.05 76.9736 114.427C75.8684 113.784 74.9942 112.89 74.3512 111.745C73.7282 110.579 73.4167 109.203 73.4167 107.615ZM76.4009 107.555C76.4009 108.66 76.5918 109.614 76.9736 110.418C77.3554 111.222 77.8879 111.845 78.5712 112.287C79.2544 112.709 80.018 112.92 80.862 112.92C81.7462 112.92 82.5299 112.699 83.2132 112.257C83.9165 111.795 84.4691 111.152 84.871 110.328C85.2729 109.504 85.4739 108.519 85.4739 107.374C85.4739 106.269 85.283 105.314 84.9012 104.51C84.5194 103.706 83.9868 103.094 83.3036 102.672C82.6405 102.229 81.8768 102.008 81.0127 102.008C80.1286 102.008 79.3348 102.24 78.6315 102.702C77.9482 103.144 77.4056 103.777 77.0037 104.601C76.6018 105.425 76.4009 106.409 76.4009 107.555ZM91.7523 115V99.9286H94.5858V115H91.7523ZM94.5858 106.892L93.9528 103.606C94.435 102.219 95.058 101.205 95.8216 100.562C96.5852 99.8984 97.3991 99.5668 98.2632 99.5668C98.6852 99.5668 99.057 99.6372 99.3785 99.7778C99.7201 99.9185 99.9813 100.13 100.162 100.411C100.363 100.672 100.464 101.004 100.464 101.406C100.464 101.888 100.333 102.25 100.072 102.491C99.8105 102.732 99.479 102.852 99.0771 102.852C98.7756 102.852 98.4943 102.812 98.2331 102.732C97.9718 102.631 97.7005 102.581 97.4192 102.581C96.5752 102.581 95.892 102.983 95.3695 103.787C94.847 104.591 94.5858 105.626 94.5858 106.892Z" fill="white"/>
<path d="M124.701 115V94.5028H127.775V115H124.701ZM110.775 115V94.5028H113.849V115H110.775ZM111.95 105.294V102.581H126.147V105.294H111.95ZM132.934 115V99.8984C133.878 100.079 134.823 100.079 135.767 99.8984V115H132.934ZM134.351 97.3061C133.748 97.3061 133.286 97.1454 132.964 96.8238C132.663 96.4822 132.512 96.0703 132.512 95.588C132.512 95.1057 132.663 94.7038 132.964 94.3823C133.286 94.0406 133.748 93.8698 134.351 93.8698C134.953 93.8698 135.406 94.0406 135.707 94.3823C136.008 94.7038 136.159 95.1057 136.159 95.588C136.159 96.0703 136.008 96.4822 135.707 96.8238C135.406 97.1454 134.953 97.3061 134.351 97.3061ZM144.508 115L138.329 99.9286H141.494L147.1 115H144.508ZM147.552 115H145.081L150.597 99.9286H153.732L147.552 115ZM162.289 115.362C159.857 115.362 157.968 114.699 156.622 113.372C155.276 112.026 154.602 110.157 154.602 107.766C154.602 106.118 154.924 104.681 155.567 103.455C156.21 102.229 157.094 101.275 158.22 100.592C159.365 99.9085 160.681 99.5668 162.168 99.5668C163.414 99.5668 164.479 99.7879 165.363 100.23C166.268 100.672 166.951 101.265 167.413 102.008C167.895 102.752 168.137 103.566 168.137 104.45C168.137 105.294 167.926 106.007 167.504 106.59C167.082 107.153 166.489 107.595 165.725 107.916C164.961 108.238 164.077 108.449 163.073 108.549C162.088 108.63 161.033 108.61 159.908 108.489C158.782 108.369 157.627 108.158 156.441 107.856V105.957C157.566 106.238 158.652 106.429 159.697 106.53C160.741 106.61 161.676 106.6 162.5 106.5C163.344 106.379 164.007 106.138 164.489 105.776C164.992 105.415 165.243 104.912 165.243 104.269C165.243 103.606 164.972 103.033 164.429 102.551C163.906 102.049 163.143 101.797 162.138 101.797C161.254 101.797 160.46 102.029 159.757 102.491C159.074 102.933 158.531 103.586 158.129 104.45C157.727 105.314 157.526 106.359 157.526 107.585C157.526 108.77 157.717 109.765 158.099 110.569C158.481 111.373 159.043 111.986 159.787 112.408C160.53 112.83 161.475 113.041 162.62 113.041C163.464 113.041 164.318 112.93 165.183 112.709C166.047 112.488 166.901 112.157 167.745 111.714V113.915C167.102 114.297 166.328 114.638 165.424 114.94C164.519 115.221 163.474 115.362 162.289 115.362Z" fill="#FFD322"/>
<path d="M74.0918 53.0236H96.8549M73.9378 65.8552H97.0345M67.522 40.1921C66.2593 40.2166 65.022 40.5513 63.9192 41.1668C62.8164 41.7823 61.8819 42.6597 61.1981 43.7215C60.5144 44.7834 60.1024 45.9972 59.9984 47.2558C59.8945 48.5145 60.1017 49.7794 60.602 50.9391C61.1022 52.0987 61.8801 53.1175 62.867 53.9056C63.8538 54.6937 65.0195 55.2269 66.261 55.4583C67.5026 55.6896 68.7821 55.6119 69.9866 55.2321C71.191 54.8523 72.2836 54.182 73.1679 53.2803C78.0439 47.891 85.4861 40.1921 85.4861 40.1921C85.4861 40.1921 92.9284 47.891 97.8044 53.2803C98.6887 54.182 99.7813 54.8523 100.986 55.2321C102.19 55.6119 103.47 55.6896 104.711 55.4583C105.953 55.2269 107.118 54.6937 108.105 53.9056C109.092 53.1175 109.87 52.0987 110.37 50.9391C110.871 49.7794 111.078 48.5145 110.974 47.2558C110.87 45.9972 110.458 44.7834 109.774 43.7215C109.09 42.6597 108.156 41.7823 107.053 41.1668C105.95 40.5513 104.713 40.2166 103.45 40.1921H67.522Z" stroke="#FFD322" stroke-width="2.73607" stroke-linecap="round" stroke-linejoin="round"/>
<path d="M94.4683 49.6871C96.778 51.9967 98.0612 55.0763 98.3178 58.1559C98.3178 73.0404 85.4863 78.6863 85.4863 78.6863C85.4863 78.6863 72.6548 73.0404 72.6548 58.1559C72.9114 55.0763 74.1946 51.9967 76.5042 49.6871" stroke="#FFD322" stroke-width="2.73607" stroke-linecap="round" stroke-linejoin="round"/>
<path d="M83.8378 0.0443687C76.7107 0.917786 71.0161 5.82639 69.1295 12.7089C68.7801 13.9492 68.7277 14.5955 68.7277 16.9712C68.7277 19.3294 68.7976 19.9932 69.1295 21.2509C69.6885 23.3471 71.0335 25.9499 72.5009 27.8015C75.5054 31.5922 76.9029 34.2648 77.8986 38.1603C78.2829 39.6625 77.8811 39.5927 85.5847 39.5927C93.2882 39.5927 92.8864 39.6625 93.2707 38.1603C94.2664 34.2648 95.6639 31.5922 98.6684 27.8015C100.136 25.9499 101.481 23.3471 102.04 21.2509C102.372 19.9932 102.442 19.3294 102.442 16.9712C102.442 14.5955 102.389 13.9492 102.04 12.7089C100.345 6.52512 95.4193 1.75626 89.3054 0.393734C88.0128 0.114243 84.9383 -0.0953789 83.8378 0.0443687ZM88.4495 2.57728C90.5107 2.92664 92.9738 4.07956 94.8778 5.5993C97.0089 7.29373 98.9479 10.2808 99.7689 13.1456C100.328 15.137 100.328 18.8054 99.7689 20.7967C99.2274 22.6833 98.057 24.8843 96.6072 26.701C94.1965 29.758 92.4846 32.7101 91.716 35.2431C91.192 36.8851 90.7553 37.3218 89.6198 37.3218C89.0609 37.3218 88.694 37.2344 88.5543 37.0598C88.3621 36.8327 88.8512 34.8238 91.4365 25.1464L94.5634 13.5125L94.1616 13.198C93.9345 13.0059 93.7074 12.8661 93.6376 12.8661C93.2707 12.8661 92.8864 13.4251 92.6244 14.3509C92.4672 14.9274 92.2576 15.5038 92.1702 15.6087C91.8558 16.0454 91.0872 15.8532 90.4758 15.2243C89.7421 14.4732 88.8163 14.1762 87.8905 14.4208C87.5236 14.5256 86.9647 14.875 86.6328 15.2243C86.2485 15.6087 85.8816 15.8357 85.5847 15.8357C85.2877 15.8357 84.9209 15.6087 84.5366 15.2243C83.8029 14.4732 82.8771 14.1762 81.9512 14.4208C81.5844 14.5256 81.0254 14.875 80.6935 15.2243C80.0821 15.8532 79.3135 16.0454 78.9991 15.6087C78.9118 15.5038 78.7021 14.9274 78.5449 14.3509C78.2829 13.4251 77.8986 12.8661 77.5318 12.8661C77.4619 12.8661 77.2348 13.0059 77.0077 13.198L76.6059 13.5125L79.7328 25.1464C82.3181 34.8063 82.8072 36.8327 82.615 37.0598C82.3006 37.4266 80.8333 37.4091 80.3616 37.0074C80.152 36.8501 79.7852 36.1165 79.5406 35.4003C78.5973 32.5879 76.8854 29.6182 74.4748 26.5788C73.1123 24.8843 71.9419 22.6659 71.4004 20.7967C70.8414 18.8054 70.8414 15.137 71.4004 13.1456C72.2389 10.2284 74.1254 7.3636 76.3439 5.58183C79.855 2.7869 83.8378 1.80867 88.4495 2.57728ZM83.6282 16.6043C84.7636 17.8097 86.1611 17.8446 87.4188 16.6917C88.3447 15.8357 88.8163 15.8183 89.5674 16.6218C89.8993 16.9712 90.4583 17.3205 90.8776 17.4428C91.2793 17.5476 91.6287 17.6699 91.6636 17.6874C91.6986 17.7049 90.5631 21.9846 89.1657 27.2076C86.5454 37.0423 86.4406 37.3218 85.5847 37.3218C84.7287 37.3218 84.6239 37.0423 81.9862 27.2076C80.5887 21.9846 79.4707 17.7049 79.5057 17.6874C79.5406 17.6699 79.89 17.5476 80.2918 17.4428C80.711 17.3205 81.27 16.9712 81.6019 16.6218C82.3355 15.8183 82.8945 15.8183 83.6282 16.6043Z" fill="#FFD322"/>
</svg>
