<svg width="300" height="175" viewBox="0 0 300 175" fill="none" xmlns="http://www.w3.org/2000/svg">
<path d="M258.179 17.3262H221.638V33.863H258.179V17.3262Z" fill="black"/>
<path d="M80.0089 95.4756H46.6687V151.22H80.0089V95.4756Z" fill="black"/>
<path d="M253.834 45.4333C252.943 45.4333 252.148 44.9826 251.66 44.1931C251.359 43.7103 251.049 43.2195 250.748 42.7448C250.375 42.1553 249.988 41.5445 249.612 40.9337C249.404 40.5977 249.236 40.2616 249.089 39.9682C249.049 39.8882 249.009 39.8055 248.966 39.7255C248.505 39.8428 248.038 39.9522 247.571 40.0509C245.787 40.427 244.12 40.6403 242.472 40.7044C241.917 40.7257 241.373 40.7364 240.858 40.7364C239.498 40.7364 238.252 40.6643 237.049 40.5177C235.395 40.3149 233.987 40.0589 232.712 39.7228C232.664 39.8268 232.6 39.9549 232.515 40.0989C232.237 40.5577 231.96 41.0138 231.68 41.4698C231.152 42.334 230.608 43.2302 230.08 44.1104C229.576 44.9479 228.754 45.428 227.823 45.428C227.53 45.428 227.234 45.38 226.924 45.2813C222.169 43.7636 217.661 41.4592 213.53 38.4266C212.978 38.0211 212.311 37.2743 212.26 36.0021C212.217 34.9512 212.164 33.879 212.111 32.8414L212.105 32.7374C212.103 32.7214 212.097 32.7054 212.095 32.6894C212.057 32.524 212.036 32.3533 212.036 32.1826V30.2569C212.036 30.1235 212.049 29.9875 212.071 29.8541C212.081 29.7874 212.095 29.7234 212.111 29.6568C212.113 29.6434 212.116 29.6301 212.119 29.6167C212.14 29.3314 212.153 29.0433 212.169 28.7392C212.207 28.0351 212.244 27.3069 212.351 26.5495L212.407 26.144C212.647 24.4397 212.895 22.6767 213.287 20.9296C214.549 15.3178 216.874 9.98872 220.398 4.64362C220.715 4.16085 221.187 3.75811 221.723 3.50739C225.068 1.9524 228.719 0.79483 232.571 0.0613459C232.766 0.0240049 232.95 0.00533443 233.136 0.00533443C234.185 0.00533443 235.083 0.586787 235.54 1.56032C235.71 1.92573 235.886 2.2858 236.073 2.66721C236.078 2.67788 236.084 2.68855 236.089 2.70189C236.249 2.68588 236.412 2.66988 236.58 2.65921C236.897 2.63788 237.212 2.61387 237.529 2.5872C238.596 2.50451 239.698 2.41916 240.826 2.41916H240.911C242.61 2.42717 244.155 2.51252 245.592 2.68588C245.622 2.62721 245.651 2.56586 245.68 2.50718C245.838 2.18445 245.984 1.87772 246.131 1.56832C246.59 0.586787 247.486 0 248.532 0C248.737 0 248.95 0.0240049 249.161 0.0720148C249.396 0.122692 249.633 0.170702 249.886 0.221379C250.153 0.274723 250.431 0.330735 250.713 0.392081C253.959 1.1149 257.056 2.15511 259.91 3.48338C260.299 3.66475 260.843 4.00349 261.238 4.59561C263.609 8.15901 265.498 11.8851 266.847 15.6726C268.586 20.5536 269.504 25.6373 269.573 30.785C269.573 30.8197 269.589 30.905 269.597 30.969C269.611 31.0624 269.624 31.1557 269.635 31.2491C269.645 31.3344 269.651 31.4225 269.651 31.5078V32.1053C269.651 32.2093 269.643 32.316 269.629 32.42C269.621 32.4867 269.608 32.5534 269.597 32.6174C269.592 32.644 269.586 32.6707 269.584 32.7C269.565 33.0521 269.549 33.4015 269.533 33.7536C269.498 34.5351 269.461 35.3433 269.408 36.1488C269.352 36.9969 268.904 37.8344 268.24 38.3305C264.143 41.3898 259.587 43.7316 254.695 45.2893C254.399 45.3826 254.119 45.428 253.837 45.428L253.834 45.4333ZM232.019 21.5564C231.592 21.5564 230.963 21.6818 230.384 22.2846C229.194 23.5222 229.146 25.8266 230.282 27.1202C230.781 27.6857 231.392 27.9977 232.003 27.9977C232.464 27.9977 232.918 27.827 233.352 27.4936C234.273 26.7842 234.545 25.8666 234.563 25.4186C234.563 23.7755 234.334 23.2634 234.035 22.77C233.571 21.9992 232.835 21.5564 232.019 21.5564ZM249.67 21.5511C249.414 21.5511 249.158 21.5991 248.905 21.6951C247.745 22.1352 247.073 23.5568 247.118 24.6237C247.118 24.6557 247.118 24.6877 247.118 24.7171C247.118 24.7518 247.118 24.7838 247.118 24.8184C247.118 24.8531 247.118 24.8878 247.118 24.9198C247.147 25.9787 247.51 26.7815 248.262 27.451C248.649 27.795 249.145 27.9871 249.654 27.9871C250.127 27.9871 250.58 27.8297 250.964 27.5363C251.665 26.9975 252.116 26.1147 252.204 25.1145C252.295 24.0663 251.978 23.0341 251.356 22.3539C250.881 21.8365 250.284 21.5511 249.67 21.5511Z" fill="black"/>
<path d="M35.2476 111.839C25.8537 112.367 18.3242 109.999 13.5285 104.974C8.67151 99.8872 7.16987 92.715 9.07159 83.6998L9.48234 81.7554C10.6452 76.2343 12.9871 71.1586 16.4331 66.675C20.1805 61.7993 24.9895 57.8945 30.7134 55.0673C36.1758 52.3707 42.0544 50.8798 48.1863 50.6264C48.445 50.6157 48.7037 50.6077 48.9571 50.5997C57.0788 50.3783 63.5334 52.0907 68.1797 55.6728C73.2421 59.5749 75.5973 65.3227 75.0025 72.3188C74.7891 74.8207 73.5408 77.3732 71.5084 79.5123C72.6046 81.318 72.9034 83.5531 72.3246 85.8843C71.167 90.5519 68.7585 94.8861 65.1551 98.7723C61.549 102.664 56.9908 105.803 51.595 108.1C46.7513 110.159 41.4942 111.404 35.9651 111.796C35.7251 111.812 35.485 111.828 35.2476 111.842V111.839Z" fill="black"/>
<path d="M60.4608 86.0657C59.7833 88.7515 58.4391 91.176 56.4173 93.3338C54.3929 95.4996 51.8004 97.2466 48.6344 98.5722C45.4577 99.9032 41.9663 100.698 38.1522 100.946C31.8336 101.359 27.174 100.005 24.2027 96.8732C21.2261 93.7392 20.3699 89.1036 21.6395 82.9877L22.0396 81.054C22.8318 77.2318 24.3494 73.8498 26.5872 70.9105C28.817 67.9793 31.6256 65.6695 35.0129 63.9784C38.3843 62.2928 42.065 61.3592 46.0525 61.1725C51.7684 60.9058 56.0999 61.9087 59.0632 64.1785C62.0185 66.443 63.3094 69.6996 62.9387 73.9538L51.6777 74.5513C52.0591 72.2175 51.6723 70.5798 50.5174 69.6303C49.3625 68.6807 47.3888 68.2753 44.5936 68.414C41.7476 68.5554 39.4832 69.5263 37.8002 71.324C36.1118 73.127 34.8476 75.9356 34.002 79.7577L33.4419 82.5049C32.5938 86.6578 32.6311 89.5917 33.5566 91.3014C34.4795 93.0111 36.5119 93.7659 39.6485 93.5712C42.2944 93.4058 44.4122 92.7764 46.0098 91.6748C47.6022 90.5786 48.6611 88.9276 49.1865 86.7271L60.4661 86.063L60.4608 86.0657Z" fill="black"/>
<path d="M60.9517 109.5C57.8203 109.673 55.0358 108.758 53.1901 106.937C51.3043 105.075 50.5602 102.424 51.1256 99.5724L58.7512 61.1272C59.9008 55.3287 66.1741 50.4183 72.7274 50.1436L90.6538 49.3941C90.9311 49.3835 91.2059 49.3728 91.4779 49.3648C98.9034 49.1647 104.785 50.5517 108.994 53.4776C114.155 57.073 116.304 62.7782 115.064 69.5769C114.221 74.2046 112.205 78.3601 109.068 81.9288C108.759 82.2809 108.439 82.6276 108.108 82.9663L111.375 90.2612C112.039 91.7442 112.221 93.4512 111.898 95.2195L111.826 95.609C110.778 101.367 104.753 106.414 98.3353 106.867L86.5729 107.697C86.5062 107.702 86.4422 107.705 86.3755 107.71C83.8737 107.849 81.6252 107.265 79.9155 106.099C77.6858 107.555 75.0799 108.508 72.41 108.697L61.149 109.489C61.0823 109.494 61.0157 109.497 60.9463 109.502L60.9517 109.5Z" fill="black"/>
<path d="M83.0495 84.1666L77.059 84.5187L74.4611 98.0495L63.2428 98.7829L70.6977 60.5698L88.6934 59.7269C94.0545 59.4762 98.0419 60.263 100.674 62.0794C103.302 63.8958 104.281 66.5923 103.614 70.1797C103.131 72.7803 102.099 74.9754 100.517 76.7597C98.9301 78.5494 96.6817 80.0564 93.7717 81.2833L100.362 95.9744L100.29 96.3664L88.5733 97.1319L83.0549 84.1693L83.0495 84.1666ZM78.4139 77.4639L85.3913 77.0771C87.4771 76.9625 89.1308 76.421 90.3524 75.4528C91.5713 74.4873 92.3341 73.1937 92.6408 71.5694C92.9476 69.9477 92.6595 68.7021 91.7767 67.8353C90.8938 66.9657 89.4242 66.5843 87.3678 66.6857L80.417 67.0351L78.4139 77.4612V77.4639Z" fill="black"/>
<path d="M103.171 106.526C96.8523 106.875 92.5955 102.549 93.673 96.7932L100.706 59.1615C101.768 53.483 107.753 48.6793 114.045 48.4179L144.038 47.1643C144.099 47.1643 144.161 47.159 144.222 47.159C147.065 47.0843 149.599 48.0178 151.29 49.7675C153.016 51.5519 153.728 54.0457 153.269 56.7023L152.104 63.461C151.64 66.1469 150.071 68.6514 147.881 70.5638C147.857 70.8092 147.825 71.0599 147.78 71.3133L146.644 77.8613C146.543 78.4428 146.391 79.0189 146.185 79.5897C147.793 81.3047 148.546 83.7265 148.071 86.4764L146.889 93.3231C146.42 96.0384 144.801 98.7243 142.379 100.791C139.949 102.866 136.914 104.155 133.935 104.363L103.366 106.515C103.299 106.521 103.235 106.523 103.168 106.529L103.171 106.526Z" fill="black"/>
<path d="M135.53 78.4961L118.929 79.4483L117.315 88.3755L136.957 87.1619L135.748 94.0486L105.294 96.0357L112.17 58.6254L142.275 57.2144L141.083 64.0131L121.548 64.9947L120.134 72.8069L136.695 71.9108L135.535 78.4961H135.53Z" fill="black"/>
<path d="M134.649 104.309C131.003 104.509 127.888 103.064 126.309 100.418C124.703 97.7267 124.906 94.1553 126.845 90.888L149.186 53.2429C151.501 49.3434 155.96 46.6656 160.42 46.4789L169.913 46.0814C169.971 46.0814 170.033 46.0761 170.091 46.0761C174.396 45.9614 177.832 48.2499 178.802 51.888L188.183 86.9778C188.983 89.9705 188.015 93.4858 185.588 96.3691C183.153 99.263 179.565 101.149 175.999 101.399L165.098 102.168C165.037 102.173 164.976 102.176 164.914 102.178C161.034 102.392 157.849 100.655 156.47 97.7107C154.005 100.967 150.037 103.227 146.012 103.509L134.831 104.296C134.769 104.301 134.705 104.304 134.644 104.307L134.649 104.309Z" fill="black"/>
<path d="M165.482 85.3482L151.445 86.215L147.785 93.2618L136.645 93.9899L158.716 56.4462L168.243 56.0008L177.661 91.3147L166.8 92.0242L165.482 85.3508V85.3482ZM155.078 79.2402L164.189 78.7095L161.77 66.3576L155.075 79.2429L155.078 79.2402Z" fill="black"/>
<path d="M185.583 100.725C182.819 100.877 180.339 100.005 178.672 98.2895C176.967 96.5345 176.255 94.046 176.693 91.3761L179.893 71.9134L178.349 71.9988C178.29 72.0014 178.229 72.0041 178.17 72.0068C175.402 72.1161 172.919 71.2173 171.249 69.4889C169.542 67.7232 168.832 65.2427 169.278 62.5968L170.403 55.8968C171.324 50.421 176.847 45.7934 182.713 45.548L216.496 44.137C216.552 44.137 216.61 44.1317 216.666 44.1317C219.304 44.0624 221.67 44.9665 223.265 46.6522C224.892 48.3726 225.585 50.7757 225.193 53.3309L224.199 59.8363C223.38 65.1894 218.133 69.7957 212.452 70.1104L210.737 70.2064L207.75 89.349C206.896 94.8221 201.514 99.6044 195.699 100.013L185.759 100.711C185.7 100.717 185.639 100.719 185.58 100.722L185.583 100.725Z" fill="black"/>
<path d="M213.972 60.351L201.909 60.9565L197.286 90.0291L187.383 90.6746L192.107 61.4473L179.989 62.0554L181.088 55.3953L214.991 53.8084L213.972 60.351Z" fill="black"/>
<path d="M227.066 98.2842C222.169 98.5536 217.805 97.7534 214.103 95.8997C210.062 93.8779 207.104 90.76 205.325 86.6391C203.661 82.7877 203.159 78.3281 203.832 73.3964C203.84 73.327 203.85 73.2604 203.861 73.191L204.178 71.1879C204.976 66.1442 206.819 61.4873 209.654 57.3504C212.697 52.9068 216.666 49.3621 221.435 46.8123C225.956 44.3958 230.821 43.0675 235.9 42.8568C236.078 42.8488 236.257 42.8434 236.433 42.8381C241.226 42.7154 245.47 43.6409 249.06 45.588C252.922 47.6844 255.73 50.7997 257.421 54.8512C259.011 58.6627 259.478 63.0529 258.808 67.9099C258.808 67.9259 258.574 69.5476 258.574 69.5476C257.872 74.4499 256.157 79.0189 253.468 83.1317C250.559 87.5833 246.734 91.1894 242.085 93.8486C237.623 96.4011 232.758 97.8841 227.626 98.2468C227.439 98.2602 227.252 98.2708 227.066 98.2815V98.2842Z" fill="black"/>
<path d="M248.691 70.105C248.198 73.4951 247.059 76.5437 245.275 79.2509C243.485 81.9661 241.186 84.1186 238.372 85.7082C235.55 87.3032 232.459 88.2154 229.098 88.4341C225.724 88.6555 222.827 88.1567 220.414 86.9352C217.994 85.7136 216.245 83.8519 215.167 81.3554C214.09 78.8588 213.775 75.9382 214.22 72.5989L214.53 70.6065C215.066 67.1444 216.255 64.0585 218.096 61.3512C219.931 58.652 222.281 56.5263 225.151 54.9739C228.007 53.427 231.112 52.5788 234.459 52.4214C237.759 52.2667 240.591 52.8268 242.957 54.0991C245.317 55.3687 247.019 57.2544 248.062 59.7536C249.105 62.2554 249.393 65.168 248.926 68.5021L248.694 70.0997L248.691 70.105ZM239.399 69.1795C239.914 65.7175 239.655 63.1249 238.631 61.3993C237.604 59.6736 235.886 58.8707 233.47 58.9934C228.727 59.2308 225.729 62.5302 224.489 68.9075L224.068 71.4947C223.542 74.9487 223.782 77.5679 224.788 79.3523C225.793 81.134 227.564 81.9448 230.096 81.7874C232.493 81.6381 234.475 80.6139 236.038 78.7175C237.598 76.8264 238.636 74.1806 239.159 70.7879L239.396 69.1822L239.399 69.1795Z" fill="black"/>
<path d="M249.502 96.2224C246.921 96.3638 244.589 95.5156 243.008 93.8566C241.391 92.1576 240.695 89.7544 241.077 87.1725L246.2 52.3494C246.974 47.0923 252.018 42.6541 257.437 42.4274L272.28 41.8086C272.51 41.7979 272.739 41.7899 272.963 41.7846C279.122 41.6272 284.051 42.9075 287.636 45.5853C292.034 48.874 293.994 54.0724 293.167 60.2497C292.605 64.4532 291.055 68.222 288.556 71.4547C288.31 71.7721 288.054 72.0868 287.79 72.3935L290.724 79.0375C291.322 80.3898 291.522 81.9395 291.308 83.5451L291.26 83.8972C290.561 89.1249 285.71 93.6725 280.399 94.046L270.669 94.7314C270.616 94.7341 270.56 94.7394 270.507 94.7421C268.437 94.8541 266.557 94.31 265.103 93.2431C263.3 94.5501 261.171 95.4009 258.966 95.5556L249.67 96.2091C249.614 96.2117 249.558 96.2171 249.505 96.2197L249.502 96.2224Z" fill="black"/>
<path d="M267.026 73.3617L262.07 73.6524L260.331 85.9163L251.068 86.5217L256.069 51.888L270.96 51.1918C275.401 50.9838 278.735 51.7146 280.975 53.3763C283.213 55.038 284.107 57.4945 283.661 60.7511C283.339 63.1143 282.549 65.1014 281.287 66.7177C280.023 68.3367 278.204 69.697 275.825 70.7959L281.738 84.1693L281.69 84.524L271.992 85.1561L267.023 73.3644L267.026 73.3617ZM262.977 67.2565L268.751 66.9364C270.477 66.8404 271.832 66.3576 272.816 65.4828C273.798 64.6106 274.393 63.4397 274.598 61.9647C274.803 60.4924 274.526 59.3615 273.766 58.5693C273.006 57.7772 271.776 57.4224 270.072 57.5078L264.319 57.7958L262.977 67.2538V67.2565Z" fill="black"/>
<path d="M81.5372 156.267C78.4433 156.512 75.6854 155.651 73.853 153.856C71.9806 152.021 71.2365 149.369 71.7859 146.486L79.1848 107.603C80.2996 101.738 86.4876 96.6545 92.9662 96.2331L103.862 95.5263C103.926 95.5209 103.99 95.5183 104.054 95.5156C106.945 95.3716 109.527 96.2171 111.287 97.8841C113.669 95.9664 116.646 94.6941 119.697 94.4967L130.246 93.8112C130.31 93.8059 130.371 93.8033 130.435 93.8006C133.343 93.6566 135.932 94.5527 137.658 96.3051C139.418 98.0948 140.139 100.631 139.664 103.363L133.108 141.037C132.094 146.857 126.165 152.069 119.828 152.666L109.052 153.68C108.988 153.685 108.922 153.69 108.858 153.696C105.94 153.925 103.323 153.133 101.533 151.474C99.0928 153.506 96.0282 154.904 92.8729 155.203L81.7399 156.251C81.6733 156.256 81.6066 156.264 81.5399 156.267H81.5372Z" fill="black"/>
<path d="M121.703 142.05L110.967 143.005L113.848 126.997L97.8258 128.296L94.8519 144.44L83.7616 145.427L90.9924 106.779L101.928 106.011L99.1354 121.172L115.117 119.931L117.822 104.896L128.411 104.155L121.7 142.053L121.703 142.05Z" fill="black"/>
<path d="M127.157 151.973C101.616 154.688 116.723 148.206 117.758 142.4L124.522 104.424C125.013 101.672 126.674 98.9536 129.139 96.8705C131.595 94.7954 134.644 93.5232 137.615 93.3311L148.007 92.6563C148.068 92.6537 148.132 92.6483 148.194 92.6457C154.184 92.3469 158.23 96.5531 157.286 102.128L150.967 139.45C150.498 142.216 148.874 144.982 146.444 147.137C144.006 149.3 140.955 150.676 137.962 150.959L127.352 151.957C127.288 151.962 127.221 151.967 127.157 151.973Z" fill="black"/>
<path d="M139.773 140.442L129.203 141.381L135.812 103.629L146.241 102.898L139.773 140.439V140.442Z" fill="black"/>
<path d="M156.206 149.239C151.6 149.601 147.951 147.228 147.076 143.267L139.037 106.846C138.36 103.771 139.485 100.226 142.054 97.348C144.611 94.4807 148.274 92.6403 151.866 92.4056L163.242 91.6668C163.303 91.6641 163.365 91.6588 163.426 91.6561C166.675 91.4961 169.411 92.6964 171.012 94.8061C173.396 92.3923 176.65 90.7946 179.933 90.5813L191.072 89.8584C191.13 89.8558 191.189 89.8504 191.248 89.8478C194.616 89.6824 197.508 91.048 199.028 93.5312C200.575 96.0544 200.516 99.4257 198.868 102.57L179.048 140.394C176.834 144.616 172.3 147.726 167.691 148.158L156.393 149.223C156.331 149.228 156.267 149.233 156.206 149.239Z" fill="black"/>
<path d="M165.466 128.154L178.285 100.655L189.463 99.8712L169.393 137.812L158.134 138.812L150.114 102.632L161.532 101.832L165.464 128.157L165.466 128.154Z" fill="black"/>
<path d="M184.79 146.547C178.922 147.006 174.906 142.869 175.821 137.239L181.814 100.407C182.249 97.7347 183.79 95.1022 186.095 93.0858C188.394 91.0773 191.258 89.8478 194.062 89.6664L221.955 87.8554C222.011 87.8527 222.07 87.8474 222.126 87.8447C224.772 87.714 227.146 88.5782 228.746 90.2532C230.378 91.9629 231.077 94.382 230.688 96.9826L229.698 103.605C229.32 106.134 227.949 108.644 225.868 110.62C225.849 110.86 225.823 111.105 225.785 111.354L224.823 117.765C224.737 118.339 224.601 118.907 224.423 119.465C225.943 121.108 226.679 123.457 226.276 126.149L225.273 132.851C224.876 135.508 223.406 138.159 221.182 140.223C218.952 142.293 216.143 143.605 213.375 143.867L184.974 146.539C184.913 146.545 184.852 146.55 184.79 146.555V146.547Z" fill="black"/>
<path d="M214.484 118.595L199.052 119.843L197.678 128.581L215.935 127.023L214.909 133.763L186.609 136.279L192.464 99.6578L220.456 97.6947L219.443 104.355L201.276 105.691L200.074 113.341L215.471 112.146L214.484 118.592V118.595Z" fill="black"/>
<path d="M51.4804 82.0782C50.7922 84.9961 49.3626 87.6393 47.1888 90.0051C45.0097 92.3789 42.1985 94.31 38.7497 95.793C35.2877 97.284 31.4656 98.1935 27.2807 98.5215C20.3406 99.0657 15.1902 97.6654 11.8589 94.3153C8.51953 90.96 7.48732 85.943 8.76492 79.2936L9.16766 77.1918C9.96516 73.0363 11.5682 69.3475 13.9713 66.1309C16.3665 62.9249 19.4124 60.383 23.1012 58.5053C26.7739 56.6356 30.7988 55.5741 35.1757 55.3233C41.4463 54.9606 46.2179 55.9928 49.512 58.4093C52.798 60.8205 54.2783 64.3279 53.9529 68.9368L41.6117 69.737C41.9824 67.2058 41.5263 65.4347 40.2407 64.4239C38.9524 63.4103 36.7787 62.9996 33.714 63.1863C30.5907 63.3783 28.1209 64.4585 26.3072 66.4296C24.4881 68.406 23.1519 71.468 22.2984 75.6208L21.7356 78.6081C20.8847 83.121 20.9834 86.3004 22.0343 88.1407C23.0825 89.9811 25.3337 90.7706 28.7744 90.5119C31.679 90.2958 33.9941 89.581 35.7251 88.3648C37.4535 87.1539 38.5817 85.3508 39.1151 82.9583L51.4804 82.0782Z" fill="black"/>
<path d="M76.1894 79.7017L69.6388 80.1658L67.0596 94.8408L54.7797 95.7983L62.1946 54.3418L81.876 53.2002C87.7332 52.8615 92.1074 53.659 95.0173 55.5901C97.9219 57.5185 99.0475 60.4177 98.3913 64.3012C97.9166 67.1178 96.8337 69.4996 95.1373 71.452C93.4383 73.407 91.0138 75.0687 87.8532 76.4317L95.3481 92.2136L95.276 92.6377L82.4787 93.6352L76.1841 79.699L76.1894 79.7017ZM70.9831 72.5189L78.6139 72.0068C80.8944 71.8547 82.6921 71.2466 84.0097 70.1824C85.3247 69.1235 86.1328 67.7125 86.4342 65.9549C86.7356 64.1972 86.3969 62.8555 85.4153 61.93C84.4338 61.0018 82.8201 60.6071 80.569 60.7458L72.9675 61.2152L70.9804 72.5189H70.9831Z" fill="black"/>
<path d="M133.372 72.8523L115.299 74.1085L113.717 83.7692L135.1 82.1795L133.921 89.6264L100.746 92.2162L107.505 51.7199L140.285 49.8182L139.122 57.1637L117.859 58.476L116.475 66.9257L134.505 65.7361L133.372 72.8549V72.8523Z" fill="black"/>
<path d="M166.085 79.8244L150.847 80.9553L147.009 88.6022L134.897 89.5464L158.15 48.7753L168.491 48.1752L179.427 86.071L167.651 86.9912L166.083 79.8217L166.085 79.8244ZM154.656 73.3857L164.546 72.6869L161.671 59.4122L154.656 73.3857Z" fill="black"/>
<path d="M218.12 52.2854L205.083 53.0909L200.671 84.4173L189.954 85.2548L194.478 53.7443L181.358 54.5552L182.414 47.3724L219.085 45.2439L218.117 52.2854H218.12Z" fill="black"/>
<path d="M255.794 62.3088C255.33 65.9549 254.167 69.2409 252.3 72.1668C250.425 75.1061 247.99 77.4479 244.989 79.1949C241.978 80.9473 238.66 81.9688 235.035 82.2515C231.397 82.5369 228.258 82.0408 225.625 80.7632C222.985 79.483 221.057 77.5092 219.84 74.8393C218.624 72.1695 218.224 69.0382 218.637 65.4428L218.931 63.2983C219.44 59.5722 220.662 56.2409 222.596 53.3069C224.521 50.3837 227.02 48.0712 230.085 46.3695C233.139 44.6732 236.47 43.7236 240.082 43.5156C243.64 43.3102 246.704 43.8757 249.281 45.2119C251.852 46.5455 253.725 48.5459 254.901 51.2158C256.077 53.8857 256.448 57.009 256.01 60.5911L255.792 62.3088H255.794ZM245.758 61.4366C246.24 57.7132 245.91 54.9339 244.771 53.0962C243.629 51.2585 241.759 50.4183 239.154 50.5784C234.041 50.8931 230.872 54.4725 229.661 61.3406L229.258 64.1251C228.759 67.8406 229.074 70.6545 230.197 72.5535C231.32 74.4526 233.248 75.3008 235.98 75.0981C238.567 74.906 240.682 73.7778 242.33 71.7214C243.973 69.6676 245.04 66.8164 245.534 63.1649L245.758 61.4366Z" fill="black"/>
<path d="M275.601 65.5601L270.275 65.9389L268.656 79.1122L258.691 79.891L263.364 42.6754L279.375 41.7472C284.144 41.4698 287.742 42.2113 290.185 43.9663C292.623 45.7187 293.634 48.3379 293.223 51.832C292.927 54.3658 292.116 56.5076 290.796 58.2519C289.473 60.0043 287.545 61.4846 285.011 62.6928L291.642 76.9438L291.596 77.3252L281.186 78.1387L275.598 65.5654L275.601 65.5601ZM271.12 59.0681L277.324 58.652C279.178 58.5267 280.626 57.9906 281.666 57.041C282.704 56.0942 283.32 54.8299 283.509 53.2482C283.699 51.6693 283.379 50.4583 282.546 49.6208C281.714 48.7807 280.383 48.4179 278.554 48.5299L272.368 48.9114L271.12 59.0681Z" fill="black"/>
<path d="M119.577 141.658L107.881 142.872L110.706 125.527L93.2302 127.189L90.3016 144.694L78.1871 145.95L85.3326 104.035L97.271 103.04L94.5212 119.467L111.951 117.875L114.603 101.597L126.133 100.637L119.577 141.661V141.658Z" fill="black"/>
<path d="M139.237 139.621L127.739 140.813L134.183 99.9645L145.521 99.0203L139.237 139.621Z" fill="black"/>
<path d="M166.933 125.943L180.293 96.1237L192.397 95.1155L171.393 136.287L159.182 137.554L149.732 98.6709L162.13 97.6387L166.933 125.946V125.943Z" fill="black"/>
<path d="M219.864 114.877L203.191 116.461L201.882 125.884L221.606 123.913L220.632 131.179L190.045 134.35L195.643 94.8434L225.892 92.3229L224.932 99.4924L205.312 101.199L204.165 109.444L220.798 107.923L219.862 114.872L219.864 114.877Z" fill="black"/>
<path d="M76.8829 152.866C74.8985 153.05 73.1168 152.527 71.9192 151.404C70.6976 150.258 70.1882 148.582 70.5029 146.745L77.7577 104.661C78.0271 103.093 78.8753 101.605 80.0755 100.378C77.8484 100.218 76.0534 99.1137 75.2532 97.348L74.381 95.4169C73.2075 98.6442 69.6521 101.319 65.8646 101.629C65.8646 101.629 53.4701 102.637 53.4274 102.64C51.4137 102.773 49.6133 102.213 48.405 101.071C47.6556 100.362 47.1728 99.4631 46.9834 98.4602C45.087 99.7325 43.0119 100.863 40.7688 101.837C36.2452 103.8 31.2735 105.019 25.9898 105.448C25.7577 105.467 25.5257 105.486 25.2936 105.499C16.4118 106.096 9.58374 104.104 5.05214 99.5591C0.488539 94.9848 -0.997099 88.3381 0.651239 79.8484L1.05932 77.7386C2.07553 72.5029 4.19597 67.7152 7.35662 63.5117C10.704 59.0574 15.0329 55.4754 20.2153 52.8562C25.2216 50.3277 30.6761 48.89 36.4293 48.578C36.6826 48.5646 36.936 48.5513 37.1841 48.5433C44.8096 48.2366 50.8589 49.6822 55.1984 52.8322C56.6494 50.0343 59.9354 47.8818 63.3841 47.6925L83.0202 46.6176C83.2949 46.6016 83.5643 46.5882 83.8336 46.5776C90.8671 46.2948 96.3909 47.4684 100.277 50.0556C100.432 50.1596 100.584 50.2636 100.73 50.3703C102.059 47.5698 105.233 45.3986 108.588 45.2146C108.588 45.2146 141.373 43.4169 141.411 43.4169C143.233 43.3449 144.87 43.9157 145.977 45.0146C147.108 46.1348 147.593 47.7165 147.327 49.4075L146.182 56.7263C146.161 56.8677 146.134 57.0064 146.102 57.1451L152.024 46.8256C153.451 44.3371 156.267 42.6034 159.116 42.446C159.116 42.446 169.51 41.8779 169.547 41.8753C172.3 41.7659 174.53 43.1902 175.194 45.492L175.706 47.2657C176.463 44.017 179.768 41.3151 183.326 41.1204C183.326 41.1204 219.995 39.112 220.03 39.1094C221.71 39.0427 223.228 39.5948 224.265 40.651C224.801 41.1978 225.188 41.8566 225.407 42.5847C226.122 42.11 226.858 41.6619 227.621 41.2405C231.715 38.984 236.174 37.7144 240.874 37.4583C241.042 37.4503 241.21 37.4423 241.375 37.4343C245.806 37.2636 249.729 38.0558 253.047 39.7842C254.602 40.595 255.976 41.5872 257.163 42.7554C257.72 39.5601 260.771 36.8742 264.108 36.6902L280.087 35.8153C280.311 35.802 280.533 35.794 280.751 35.7833C286.486 35.562 291.036 36.6448 294.298 38.9973C298.147 41.7739 299.849 46.0708 299.227 51.4426C298.8 55.1366 297.528 58.412 295.445 61.1832C294.68 62.2021 293.799 63.1596 292.81 64.0478L297.264 73.6284C297.659 74.4766 297.806 75.4555 297.688 76.4717L297.646 76.8504C297.264 80.1551 294.245 83.057 290.895 83.3291C290.895 83.3291 280.394 84.1826 280.359 84.1853C278.132 84.3293 276.236 83.2731 275.412 81.4194L274.638 79.6777C273.787 82.5689 270.979 84.9481 267.903 85.1988C267.903 85.1988 257.851 86.015 257.813 86.0177C256.181 86.1243 254.698 85.6069 253.677 84.5747C252.708 83.5932 252.236 82.2222 252.338 80.7286C250.847 82.0702 249.209 83.2651 247.435 84.3053C243.4 86.6711 238.951 88.0714 234.211 88.4582C234.035 88.4715 233.859 88.4848 233.683 88.4982C233.059 88.5382 232.445 88.5622 231.84 88.5648C232.349 89.493 232.544 90.6079 232.389 91.7842L231.445 98.9296C231.227 100.589 230.33 102.242 228.951 103.528C228.397 104.045 227.781 104.485 227.132 104.838C227.388 105.582 227.471 106.425 227.351 107.331L226.431 114.253C226.268 115.488 225.732 116.72 224.905 117.808C227.151 118.531 228.519 120.625 228.17 123.26L227.212 130.496C226.988 132.184 226.082 133.875 224.689 135.204C223.297 136.532 221.521 137.386 219.766 137.575C219.766 137.575 189.034 140.864 188.997 140.866C185.27 141.208 182.667 138.628 183.177 135.062L184.828 123.559L177.589 137.831C176.221 140.53 173.356 142.541 170.419 142.853C170.419 142.853 158.102 144.171 158.062 144.176C155.128 144.446 152.773 142.976 152.168 140.479L148.479 125.268L146.398 138.874C145.836 142.549 142.168 145.875 138.191 146.302C138.191 146.302 126.586 147.545 126.546 147.548C125.13 147.678 123.821 147.422 122.77 146.825C121.487 147.676 120.009 148.249 118.489 148.412C118.489 148.412 106.684 149.676 106.641 149.679C104.713 149.857 102.982 149.34 101.813 148.233C100.618 147.102 100.117 145.451 100.413 143.643L102.168 132.993L99.5916 133.246L97.8285 143.912C97.2044 147.684 93.3236 151.106 89.1467 151.554C89.1467 151.554 76.9202 152.863 76.8776 152.866H76.8829ZM103.88 98.5376C104.646 99.6071 104.939 100.967 104.699 102.421L103.104 112.066L105.662 111.842L107.249 102.21C107.497 100.709 108.273 99.279 109.383 98.0921L103.88 98.5402V98.5376ZM168.272 93.3018C168.672 93.8673 168.947 94.5287 169.075 95.2702L170.366 102.842L173.964 94.8621C174.314 94.0886 174.791 93.3685 175.364 92.7257L168.272 93.3018ZM153.389 90.1198C153.04 90.8186 152.586 91.4694 152.053 92.0562L161.508 91.2987C161.151 90.792 160.889 90.2078 160.748 89.5597L160.111 86.6338L154.926 87.0365L153.387 90.1225L153.389 90.1198ZM207.342 83.8946C207.144 85.3108 206.467 86.6605 205.483 87.7807L221.753 86.4791C221.753 86.4791 221.739 86.4711 221.731 86.4684C218.059 84.7 215.341 81.9341 213.663 78.2507C212.06 74.7353 211.521 70.6198 212.057 66.0242C212.063 65.9815 212.068 65.9389 212.073 65.8962L212.372 63.7437C212.612 62.0101 212.983 60.3297 213.482 58.7027L210.825 58.8761L207.347 83.8946H207.342ZM184.393 77.3065L186.847 60.4337C186.847 60.4337 180.357 60.8552 180.32 60.8578C180.091 60.8685 179.867 60.8685 179.643 60.8578L184.396 77.3039L184.393 77.3065ZM29.3585 83.6572C29.4998 83.6625 29.6865 83.6625 29.9266 83.6492L30.0519 83.6412C30.556 83.6065 30.9401 83.5505 31.2255 83.4971C31.2442 83.4331 31.2602 83.3611 31.2789 83.2838C31.9883 80.1391 35.0076 77.3839 38.5017 76.4557C35.301 75.9623 33.2686 73.5644 33.7274 70.4651C33.7567 70.2704 33.7727 70.1051 33.7834 69.9664C33.514 69.9504 33.1512 69.9477 32.6765 69.9717L32.4524 69.985C32.2684 69.9957 32.119 70.0144 32.0097 70.033C31.6683 70.5505 30.8788 72.0094 30.236 75.1434L29.6919 78.064C29.0651 81.4354 29.2251 83.033 29.3638 83.6598L29.3585 83.6572ZM236.14 68.9075C236.14 68.9075 236.297 68.9635 236.724 68.9395L236.793 68.9341C237.145 68.9101 237.289 68.8488 237.3 68.8435C237.3 68.8435 237.372 68.7874 237.5 68.6301C237.849 68.1953 238.711 66.835 239.156 63.5864L239.383 61.866C239.834 58.436 239.263 57.1984 239.076 56.8997C238.983 56.7503 238.924 56.713 238.924 56.713C238.9 56.7023 238.748 56.6596 238.412 56.6783H238.353C237.825 56.7156 237.62 56.8143 237.62 56.8143C237.62 56.8143 236.684 57.7212 236.086 61.0712L235.71 63.7117C235.275 67.0324 235.79 68.3474 236.033 68.7581C236.089 68.8541 236.134 68.8995 236.145 68.9101L236.14 68.9075ZM141.419 62.6982C141.648 63.3757 141.734 64.1198 141.662 64.8906L143.963 60.8818C143.235 61.6126 142.368 62.2341 141.421 62.6982H141.419Z" fill="black"/>
<path d="M51.4803 82.0782C50.7922 84.9961 49.3626 87.6393 47.1888 90.0051C45.0097 92.379 42.1984 94.31 38.7497 95.793C35.2877 97.284 31.4656 98.1935 27.2807 98.5215C20.3406 99.0657 15.1902 97.6654 11.8589 94.3154C8.51953 90.96 7.48732 85.943 8.76492 79.2936L9.16766 77.1918C9.96516 73.0363 11.5682 69.3476 13.9713 66.1309C16.3665 62.9249 19.4124 60.383 23.1012 58.5053C26.7739 56.6356 30.7988 55.5741 35.1757 55.3233C41.4463 54.9606 46.2179 55.9928 49.5119 58.4093C52.798 60.8205 54.2783 64.3279 53.9529 68.9368L41.6117 69.737C41.9824 67.2058 41.5263 65.4348 40.2407 64.4239C38.9524 63.4103 36.7787 62.9996 33.714 63.1863C30.5907 63.3783 28.1209 64.4586 26.3072 66.4296C24.4881 68.406 23.1519 71.468 22.2984 75.6208L21.7356 78.6081C20.8847 83.1211 20.9834 86.3004 22.0343 88.1408C23.0825 89.9811 25.3336 90.7706 28.7744 90.5119C31.679 90.2959 33.9941 89.5811 35.7251 88.3648C37.4535 87.1539 38.5817 85.3508 39.1151 82.9584L51.4803 82.0782ZM76.1894 79.7017L69.6387 80.1658L67.0595 94.8408L54.7797 95.7983L62.1945 54.3418L81.8759 53.2002C87.7331 52.8615 92.1073 53.659 95.0173 55.5901C97.9219 57.5185 99.0474 60.4177 98.3913 64.3012C97.9165 67.1178 96.8337 69.4996 95.1373 71.452C93.4383 73.4071 91.0138 75.0687 87.8531 76.4317L88.5413 78.6321C89.8909 82.953 91.9126 86.9725 94.5825 90.5706C95.8414 92.2669 97.0337 93.7579 97.6552 94.3287L109.098 104.819C105.587 105.139 100.792 105.63 99.4395 105.502C94.6305 105.054 90.315 101.49 87.021 98.6896L85.8261 97.6734C84.3378 96.4091 83.1695 94.8728 82.3667 93.1284L76.1868 79.699L76.1894 79.7017ZM70.983 72.5189L78.6139 72.0068C80.8944 71.8547 82.6921 71.2466 84.0097 70.1824C85.3246 69.1235 86.1328 67.7126 86.4342 65.9549C86.7356 64.1972 86.3968 62.8556 85.4153 61.93C84.4338 61.0018 82.8201 60.6071 80.569 60.7458L72.9674 61.2152L70.9803 72.5189H70.983ZM133.372 72.8523L115.299 74.1085L113.717 83.7692L135.1 82.1795L133.921 89.6264L100.746 92.2163L107.505 51.7199L140.285 49.8182L139.122 57.1637L117.859 58.476L116.475 66.9257L134.505 65.7361L133.372 72.8549V72.8523ZM166.085 79.8244L150.847 80.9553L147.009 88.6022L134.897 89.5464L158.15 48.7753L168.491 48.1752L179.427 86.071L167.651 86.9912L166.083 79.8217L166.085 79.8244ZM154.656 73.3857L164.546 72.6869L161.671 59.4122L154.656 73.3857ZM218.12 52.2854L205.083 53.0909L200.671 84.4173L189.954 85.2548L194.478 53.7444L181.358 54.5552L182.414 47.3724L219.085 45.2439L218.117 52.2854H218.12ZM255.794 62.3088C255.33 65.9549 254.167 69.2409 252.3 72.1668C250.425 75.1061 247.99 77.4479 244.989 79.1949C241.978 80.9473 238.66 81.9688 235.035 82.2515C231.397 82.5369 228.258 82.0408 225.625 80.7632C222.985 79.483 221.056 77.5092 219.84 74.8393C218.624 72.1695 218.224 69.0382 218.637 65.4428L218.931 63.2983C219.44 59.5722 220.662 56.2409 222.595 53.3069C224.521 50.3837 227.02 48.0712 230.085 46.3695C233.139 44.6732 236.47 43.7236 240.082 43.5156C243.64 43.3102 246.704 43.8757 249.281 45.2119C251.852 46.5455 253.725 48.546 254.901 51.2158C256.077 53.8857 256.448 57.009 256.01 60.5911L255.792 62.3088H255.794ZM245.758 61.4366C246.24 57.7132 245.91 54.9339 244.771 53.0962C243.629 51.2585 241.759 50.4183 239.154 50.5784C234.04 50.8931 230.872 54.4725 229.661 61.3406L229.258 64.1252C228.759 67.8406 229.074 70.6545 230.197 72.5536C231.32 74.4526 233.248 75.3008 235.98 75.0981C238.567 74.906 240.682 73.7778 242.33 71.7214C243.973 69.6676 245.04 66.8164 245.533 63.165L245.758 61.4366ZM275.601 65.5601L270.275 65.9389L268.656 79.1122L258.691 79.8911L263.364 42.6754L279.375 41.7472C284.144 41.4698 287.742 42.2113 290.185 43.9663C292.623 45.7187 293.634 48.3379 293.223 51.832C292.927 54.3658 292.116 56.5076 290.796 58.2519C289.473 60.0043 287.545 61.4846 285.011 62.6929L291.642 76.9438L291.596 77.3252L281.186 78.1387L275.598 65.5654L275.601 65.5601ZM271.12 59.0681L277.324 58.652C279.178 58.5267 280.626 57.9906 281.666 57.041C282.704 56.0942 283.32 54.8299 283.509 53.2483C283.699 51.6693 283.379 50.4583 282.546 49.6208C281.714 48.7807 280.383 48.4179 278.554 48.5299L272.368 48.9114L271.12 59.0681ZM119.577 141.658L107.881 142.872L110.706 125.527L93.2302 127.189L90.3016 144.694L78.1872 145.95L82.9241 117.336C83.679 112.772 83.7856 109.092 88.8454 108.761L93.513 108.412C95.0146 109.214 95.7668 110.756 95.5134 112.519L94.5238 119.467L111.954 117.875L114.605 101.597L126.136 100.637L119.58 141.661L119.577 141.658ZM139.237 139.621L127.739 140.813L134.183 99.9645L145.521 99.0203L139.237 139.621ZM166.933 125.943L180.293 96.1237L192.397 95.1155L171.393 136.287L159.182 137.554L149.732 98.6709L162.13 97.6387L166.933 125.946V125.943ZM219.864 114.877L203.191 116.461L201.882 125.885L221.606 123.913L220.632 131.179L190.045 134.35L195.643 94.8435L225.892 92.3229L224.932 99.4924L205.312 101.199L204.165 109.444L220.798 107.923L219.862 114.872L219.864 114.877Z" fill="#FDC70D"/>
<path d="M225.625 80.7659C228.261 82.0435 231.397 82.5369 235.035 82.2542C238.66 81.9715 241.976 80.9499 244.989 79.1976C247.99 77.4506 250.425 75.1087 252.3 72.1695C253.482 70.3184 254.381 68.3233 255 66.1869L244.776 66.8004C244.197 68.7661 243.381 70.4091 242.33 71.7214C240.682 73.7805 238.567 74.906 235.98 75.0981C233.248 75.3008 231.32 74.4553 230.197 72.5535C229.474 71.3293 229.088 69.7236 229.037 67.7446L218.485 68.3794C218.52 70.7718 218.968 72.9296 219.843 74.8447C221.057 77.5119 222.988 79.4883 225.628 80.7686L225.625 80.7659Z" fill="#F3A207"/>
<path d="M200.671 84.4173L202.797 69.3209L192.152 69.9584L189.954 85.2522L200.671 84.4173Z" fill="#F3A207"/>
<path d="M229.258 64.1225L229.661 61.3379C230.872 54.4725 234.041 50.8904 239.154 50.5757C241.757 50.4157 243.627 51.2558 244.771 53.0936C245.912 54.9313 246.24 57.7105 245.758 61.4339L245.534 63.1623C245.355 64.4772 245.101 65.6881 244.776 66.7977L255 66.1842C255.36 64.9413 255.626 63.6477 255.797 62.3088L256.016 60.5911C256.45 57.009 256.08 53.8857 254.906 51.2158C253.73 48.546 251.858 46.5455 249.286 45.2119C246.71 43.8757 243.645 43.3102 240.087 43.5156C236.476 43.7236 233.144 44.6732 230.09 46.3695C227.023 48.0712 224.527 50.3837 222.601 53.3069C220.667 56.2409 219.446 59.5722 218.936 63.2983L218.643 65.4428C218.525 66.4563 218.477 67.4325 218.491 68.374L229.042 67.7392C229.013 66.6457 229.088 65.4401 229.264 64.1198L229.258 64.1225Z" fill="#FDC70D"/>
<path d="M268.656 79.1122L270.275 65.9362L275.601 65.5601L281.189 78.1334L291.602 77.3199L291.644 76.9411L285.779 64.3359L260.454 65.8562L258.691 79.8884L268.656 79.1122Z" fill="#F3A207"/>
<path d="M115.299 74.1085L133.372 72.8523L134.505 65.7335L116.475 66.923L117.859 58.4733L139.122 57.161L140.285 49.8155L107.505 51.7173L103.571 75.2794L115.221 74.5806L115.299 74.1085Z" fill="#FDC70D"/>
<path d="M21.7329 78.6055L22.2957 75.6182C23.1492 71.4653 24.4855 68.4034 26.3045 66.427C28.1182 64.4559 30.5881 63.3757 33.7114 63.1836C36.776 62.9943 38.9498 63.4077 40.2381 64.4212C41.5237 65.4348 41.9824 67.2031 41.609 69.7343L53.9502 68.9341C54.273 64.3252 52.7953 60.8178 49.5093 58.4066C46.2153 55.9901 41.4436 54.9579 35.173 55.3207C30.7961 55.5741 26.7713 56.6329 23.0985 58.5027C19.4098 60.3831 16.3665 62.9222 13.9687 66.1282C11.5655 69.3449 9.95985 73.0337 9.16502 77.1892L8.76227 79.2909C8.65025 79.8697 8.5649 80.4325 8.48755 80.9873L21.4609 80.2085C21.5356 79.6937 21.6262 79.1576 21.7303 78.6028L21.7329 78.6055Z" fill="#FDC70D"/>
<path d="M285.014 62.6902C287.548 61.4819 289.476 60.0016 290.799 58.2493C292.119 56.5023 292.927 54.3631 293.226 51.8293C293.637 48.3352 292.623 45.716 290.188 43.9637C287.745 42.2087 284.147 41.4698 279.378 41.7446L263.367 42.6727L260.454 65.8562L285.779 64.3359L285.014 62.6902ZM283.509 53.2483C283.32 54.8299 282.707 56.0942 281.666 57.041C280.626 57.9906 279.178 58.5267 277.324 58.652L271.12 59.0681L272.368 48.9114L278.551 48.5299C280.381 48.4179 281.712 48.7807 282.544 49.6208C283.376 50.461 283.696 51.6693 283.507 53.2483H283.509Z" fill="#FDC70D"/>
<path d="M205.083 53.0882L218.12 52.2854L219.088 45.2439L182.414 47.3697L181.358 54.5525L194.48 53.7443L192.152 69.9583L202.797 69.3209L205.083 53.0882Z" fill="#FDC70D"/>
<path d="M95.1426 71.4547C96.8363 69.5049 97.9192 67.1204 98.3966 64.3039C99.0528 60.4204 97.9272 57.5211 95.0226 55.5927C92.11 53.6617 87.7358 52.8642 81.8786 53.2029L62.1972 54.3445L57.9617 78.016L88.4079 76.1863C91.2992 74.8687 93.5423 73.2924 95.14 71.4493L95.1426 71.4547ZM84.007 70.1824C82.6894 71.2439 80.8917 71.8521 78.6112 72.0068L70.9803 72.5189L72.9674 61.2152L80.569 60.7458C82.8174 60.6071 84.4311 61.0018 85.4153 61.93C86.3968 62.8556 86.7382 64.1972 86.4342 65.9549C86.1328 67.7126 85.3246 69.1235 84.0097 70.1824H84.007Z" fill="#FDC70D"/>
<path d="M166.933 125.943L166.16 121.398L155.414 122.044L159.182 137.551L171.393 136.284L179.395 120.603L169.046 121.225L166.933 125.943Z" fill="#F3A207"/>
<path d="M162.13 97.636L149.733 98.6682L155.414 122.044L166.16 121.398L162.13 97.636Z" fill="#FDC70D"/>
<path d="M134.183 99.9645L130.465 123.543L141.832 122.86L145.521 99.0203L134.183 99.9645Z" fill="#FDC70D"/>
<path d="M114.605 101.594L111.954 117.872L94.5239 119.465L95.5134 112.516C95.7641 110.753 95.0146 109.212 93.513 108.409L88.8454 108.758C83.7857 109.092 83.679 112.772 82.9242 117.333L81.4092 126.487L122.396 124.025L126.136 100.634L114.605 101.594Z" fill="#FDC70D"/>
<path d="M192.101 119.841L190.045 134.35L220.633 131.179L221.603 123.916L201.882 125.884L202.81 119.195L192.101 119.841Z" fill="#F3A207"/>
<path d="M203.192 116.461L219.864 114.877L220.798 107.929L204.165 109.449L205.309 101.205L224.932 99.4951L225.892 92.3256L195.643 94.8461L192.101 119.841L202.81 119.195L203.192 116.461Z" fill="#FDC70D"/>
<path d="M180.291 96.1237L169.046 121.225L179.395 120.603L192.397 95.1155L180.291 96.1237Z" fill="#FDC70D"/>
<path d="M127.739 140.81L139.237 139.621L141.832 122.86L130.465 123.543L127.739 140.81Z" fill="#F3A207"/>
<path d="M78.1899 145.95L90.3017 144.694L93.2303 127.189L110.706 125.527L107.884 142.869L119.577 141.658L122.396 124.025L81.0758 127.749L78.1899 145.95Z" fill="#F3A207"/>
<path d="M133.921 89.6264L135.1 82.1795L113.715 83.7692L115.221 74.5806L103.571 75.2794L100.747 92.2136L133.921 89.6264Z" fill="#F3A207"/>
<path d="M147.007 88.6048L150.847 80.9553L166.085 79.8244L167.651 86.9938L179.427 86.0737L175.071 70.9852L164.317 71.6307L164.546 72.6869L154.656 73.3857L155.264 72.1748L144.435 72.8256L134.898 89.549L147.007 88.6048Z" fill="#F3A207"/>
<path d="M67.0596 94.8434L69.6388 80.1684L76.1894 79.7043L82.3694 93.1338C83.1722 94.8781 84.3404 96.4144 85.8288 97.6787L87.0237 98.6949C90.3177 101.495 94.6332 105.056 99.4422 105.507C100.794 105.632 105.59 105.144 109.1 104.824L97.6578 94.334C97.0364 93.7659 95.8441 92.2723 94.5852 90.5759C91.918 86.9778 89.8963 82.9583 88.544 78.6375L87.8558 76.437C88.0425 76.357 88.2239 76.2743 88.4053 76.1916L57.959 78.0213L54.777 95.8036L67.0569 94.8461L67.0596 94.8434Z" fill="#F3A207"/>
<path d="M11.8589 94.3153C15.1902 97.668 20.3406 99.0656 27.2807 98.5215C31.4656 98.1935 35.2877 97.284 38.7497 95.793C42.1984 94.3073 45.0097 92.3789 47.1888 90.0051C49.3626 87.6366 50.7895 84.9961 51.4804 82.0782L39.1151 82.9583C38.5817 85.3508 37.4508 87.1539 35.7251 88.3648C33.9941 89.5784 31.6763 90.2932 28.7744 90.5119C25.331 90.7679 23.0825 89.9784 22.0343 88.1407C21.1141 86.5271 20.9247 83.8839 21.4662 80.2138L8.49286 80.9926C7.69537 86.8045 8.8156 91.2534 11.8616 94.318L11.8589 94.3153Z" fill="#F3A207"/>
<path d="M161.671 59.4149L164.317 71.6307L175.071 70.9852L168.491 48.1779L158.15 48.778L144.435 72.8256L155.264 72.1748L161.671 59.4149Z" fill="#FDC70D"/>
<path d="M31.2148 117.109L36.8 108.188L46.6687 108.276L52.2485 117.213C52.854 116.731 53.6088 116.453 54.4036 116.453C54.4036 116.453 54.9904 116.459 55.8706 116.467L49.6106 106.438C48.9838 105.432 47.8849 104.816 46.7007 104.806C46.7007 104.806 36.8107 104.718 36.8 104.718C35.6051 104.718 34.4955 105.331 33.8607 106.345L27.4861 116.525C28.593 116.536 29.3611 116.541 29.3611 116.541C30.0306 116.547 30.6681 116.752 31.2122 117.104L31.2148 117.109Z" fill="black"/>
<path d="M50.8963 118.995L45.2631 127.162H37.8829L38.3684 127.941C40.2621 127.957 43.4201 127.986 45.2578 128.002L50.8989 118.995H50.8963Z" fill="black"/>
<path d="M32.2738 118.179L32.3218 118.256L37.5895 109.844L45.8766 109.919L51.219 118.478L51.4644 118.086C51.6751 117.747 51.9445 117.459 52.2486 117.219L46.6687 108.281L36.8001 108.193L31.2149 117.115C31.6337 117.387 31.9991 117.744 32.2738 118.182V118.179Z" fill="black"/>
<path d="M44.8977 152.021H36.8L31.1722 142.875C30.5188 143.597 29.5879 144.019 28.601 144.019H27.8035L33.8448 153.837C34.4769 154.861 35.5945 155.488 36.7974 155.488H45.8366L45.3138 154.637C44.8257 153.842 44.687 152.898 44.895 152.021H44.8977Z" fill="black"/>
<path d="M37.4189 151.258L31.823 142.163L31.9217 142.005H31.8097L31.455 142.52C31.3669 142.645 31.2736 142.763 31.1722 142.875L36.8001 152.021H44.8977C44.9591 151.759 45.0524 151.503 45.1778 151.258H37.4215H37.4189Z" fill="black"/>
<path d="M31.8097 142.008H31.9217L33.0153 140.258L31.8097 142.008Z" fill="black"/>
<path d="M45.2444 132.283H38.5151L37.8643 133.227L45.8712 133.299L45.2444 132.283Z" fill="black"/>
<path d="M44.543 130.237H39.1765C39.1765 130.635 39.1125 131.032 38.9738 131.414L44.7963 131.467C44.6336 131.072 44.551 130.656 44.5403 130.24L44.543 130.237Z" fill="black"/>
<path d="M44.8043 128.816H38.8751C39.0778 129.269 39.1765 129.755 39.1765 130.237H44.543C44.5296 129.755 44.615 129.269 44.8043 128.816Z" fill="black"/>
<path d="M45.0657 128.309L45.2578 128.002C43.4227 127.986 40.2621 127.957 38.3683 127.941L38.6564 128.402C38.7391 128.536 38.8111 128.674 38.8751 128.816H44.8043C44.8763 128.642 44.9617 128.472 45.0631 128.309H45.0657Z" fill="black"/>
<path d="M45.0498 131.966C44.9511 131.806 44.8684 131.638 44.7964 131.464L38.9738 131.411C38.8751 131.688 38.7391 131.955 38.5684 132.203L38.5151 132.281H45.2445L45.0498 131.963V131.966Z" fill="black"/>
<path d="M27.1021 140.552H19.4632L13.1178 130.237H9.59979C9.6158 130.838 9.78383 131.435 10.1119 131.966L16.5132 142.368C17.1453 143.392 18.2629 144.019 19.4658 144.019H27.8062L27.4461 143.435C26.9073 142.557 26.7927 141.504 27.1021 140.552Z" fill="black"/>
<path d="M13.0619 130.149L19.4632 119.926L27.3155 119.998C26.7607 118.918 26.8087 117.616 27.4622 116.576L27.4888 116.533C24.6216 116.507 19.4712 116.461 19.4659 116.461C18.2709 116.461 17.1614 117.075 16.5266 118.088L10.1253 128.312C9.75719 128.901 9.58383 129.573 9.59983 130.24H13.1179L13.0619 130.152V130.149Z" fill="black"/>
<path d="M27.7795 139.269H20.0766L14.5208 130.24H13.1179L19.4632 140.554H27.1021C27.1874 140.287 27.3074 140.026 27.4595 139.781L27.7795 139.269Z" fill="black"/>
<path d="M14.4728 130.16L20.0766 121.209L28.0916 121.281L27.4461 120.23C27.3981 120.153 27.3554 120.075 27.3154 119.995L19.4631 119.923L13.0618 130.147L13.1178 130.235H14.5208L14.4728 130.157V130.16Z" fill="black"/>
<path d="M27.3154 119.995L29.3318 120.014L34.7116 128.632C35.1677 128.285 35.7065 128.058 36.2799 127.97L30.3987 118.414L31.2149 117.109C30.6708 116.757 30.0333 116.552 29.3638 116.547C29.3638 116.547 28.5957 116.539 27.4888 116.531L27.4621 116.573C26.8113 117.613 26.7606 118.915 27.3154 119.995Z" fill="black"/>
<path d="M38.3683 127.941L37.8829 127.162H37.5922L32.2177 118.427L32.3244 118.256L32.2764 118.179C32.0044 117.742 31.6363 117.384 31.2175 117.112L30.4014 118.416L36.2826 127.973C36.4533 127.946 36.6266 127.93 36.8027 127.93C36.8053 127.93 37.4321 127.936 38.3683 127.944V127.941Z" fill="black"/>
<path d="M28.0943 121.281L28.7184 121.286L33.8714 129.541C34.0982 129.184 34.3835 128.877 34.7116 128.629L29.3318 120.011L27.3154 119.993C27.3554 120.073 27.4008 120.15 27.4461 120.227L28.0916 121.278L28.0943 121.281Z" fill="black"/>
<path d="M31.1723 142.875L30.6388 142.005L30.3988 141.618L36.272 132.238C35.7225 132.152 35.2051 131.942 34.7623 131.619L28.6011 140.552H27.1021C26.7927 141.504 26.9074 142.56 27.4462 143.435L27.8062 144.019H28.6037C29.5906 144.019 30.5215 143.597 31.1749 142.875H31.1723Z" fill="black"/>
<path d="M31.8096 142.008H30.6387L31.1722 142.877C31.2735 142.765 31.3695 142.648 31.4549 142.523L31.8096 142.008Z" fill="black"/>
<path d="M33.0153 140.258L37.4188 133.225L37.8643 133.23L38.5151 132.286H36.8001C36.6214 132.286 36.4453 132.267 36.2719 132.241L30.3987 141.621L30.6388 142.008H31.8097L33.0153 140.261V140.258Z" fill="black"/>
<path d="M33.9408 130.766L28.0756 139.269H27.7795L27.4595 139.781C27.3048 140.026 27.1874 140.285 27.1021 140.554H28.601L34.7623 131.622C34.4449 131.39 34.1675 131.102 33.9408 130.768V130.766Z" fill="black"/>
<path d="M39.1765 130.237C39.1765 129.752 39.0805 129.267 38.8751 128.816H36.8L36.2799 127.97C35.7065 128.058 35.1677 128.285 34.7116 128.632L35.7145 130.24H39.1765V130.237Z" fill="black"/>
<path d="M38.9739 131.414C39.1099 131.035 39.1766 130.638 39.1766 130.237H35.7145L34.7623 131.619C35.2051 131.942 35.7225 132.152 36.272 132.238L36.8001 131.392L38.9739 131.411V131.414Z" fill="black"/>
<path d="M38.8751 128.816C38.8111 128.674 38.7391 128.536 38.6564 128.402L38.3684 127.941C37.4322 127.933 36.8054 127.928 36.8027 127.928C36.6267 127.928 36.4533 127.944 36.2826 127.97L36.8027 128.816H38.8778H38.8751Z" fill="black"/>
<path d="M38.515 132.283L38.5684 132.206C38.7391 131.955 38.8751 131.688 38.9738 131.414L36.8 131.395L36.2719 132.24C36.4453 132.267 36.6213 132.286 36.8 132.286H38.515V132.283Z" fill="black"/>
<path d="M33.8714 129.544L34.3062 130.24H35.7171L34.7142 128.632C34.3862 128.88 34.0981 129.187 33.8741 129.544H33.8714Z" fill="black"/>
<path d="M34.3035 130.237L33.9408 130.763C34.1675 131.096 34.4449 131.384 34.7623 131.616L35.7145 130.235H34.3035V130.237Z" fill="black"/>
<path d="M56.204 119.942L64.2723 120.014L70.599 130.149L70.655 130.237L64.4617 139.215C64.531 139.215 64.5711 139.215 64.5711 139.215C65.7553 139.226 66.8542 139.842 67.481 140.848L67.513 140.898L73.5089 132.203C74.2931 131.064 74.3277 129.571 73.5969 128.4L67.2143 118.176C66.5875 117.171 65.4886 116.555 64.3043 116.544C64.3043 116.544 58.6258 116.493 55.8706 116.469L55.9933 116.664C56.6174 117.662 56.6814 118.894 56.204 119.939V119.942Z" fill="black"/>
<path d="M52.2485 117.216L53.0514 118.502L46.4927 128.013C46.626 128.013 46.7007 128.013 46.7007 128.013C47.4955 128.021 48.2504 128.306 48.8505 128.792L54.4036 119.921L56.204 119.937C56.6814 118.891 56.6148 117.659 55.9933 116.661L55.8706 116.467C54.9904 116.459 54.4063 116.453 54.4036 116.453C53.6088 116.453 52.854 116.731 52.2485 117.213V117.216Z" fill="black"/>
<path d="M51.467 118.086L51.2216 118.478L51.2376 118.502L50.8989 118.995L45.2578 128.002C45.8179 128.008 46.2526 128.01 46.4927 128.013L53.0514 118.502L52.2485 117.216C51.9445 117.456 51.6777 117.747 51.4644 118.083L51.467 118.086Z" fill="black"/>
<path d="M47.0502 132.094L52.1339 140.239C52.5446 139.797 53.0594 139.474 53.6302 139.293L48.5678 131.067C48.1597 131.542 47.6343 131.894 47.0502 132.091V132.094Z" fill="black"/>
<path d="M45.9379 132.283H45.2444L45.8712 133.299H46.0473L51.2163 141.581L51.7338 140.757C51.8511 140.57 51.9898 140.399 52.1365 140.242L47.0528 132.096C46.6981 132.216 46.3247 132.286 45.9406 132.286L45.9379 132.283Z" fill="black"/>
<path d="M44.8044 128.816C44.615 129.269 44.5296 129.755 44.543 130.237H48.0584L48.0024 130.149L48.8505 128.794C48.2504 128.306 47.4956 128.021 46.7008 128.016C46.7008 128.016 46.6234 128.016 46.4927 128.016L45.9406 128.818H44.807L44.8044 128.816Z" fill="black"/>
<path d="M46.6687 131.483L47.0501 132.094C47.6342 131.896 48.1597 131.544 48.5678 131.07L48.0557 130.237H44.5403C44.551 130.656 44.6336 131.072 44.7963 131.464L46.6687 131.48V131.483Z" fill="black"/>
<path d="M45.0657 128.309C44.9644 128.472 44.879 128.642 44.807 128.816H45.9406L46.4927 128.013C46.2526 128.013 45.8179 128.008 45.2578 128.002L45.0657 128.309Z" fill="black"/>
<path d="M44.7963 131.467C44.8657 131.638 44.951 131.806 45.0497 131.968L45.2444 132.286H45.9379C46.322 132.286 46.6954 132.216 47.0501 132.096L46.6687 131.486L44.7963 131.47V131.467Z" fill="black"/>
<path d="M63.1868 163.223H54.6704L48.8959 153.84L48.7918 153.989C48.1437 154.928 47.0768 155.488 45.9379 155.488H45.8392L51.7178 165.039C52.3499 166.063 53.4675 166.69 54.6704 166.69H63.8083C64.091 166.69 64.371 166.656 64.6404 166.589L63.6989 165.061C63.3522 164.498 63.1815 163.86 63.1841 163.226L63.1868 163.223Z" fill="black"/>
<path d="M65.1312 143.632L70.3456 151.983C70.7724 151.799 71.2338 151.698 71.7112 151.698C71.7139 151.698 72.8101 151.709 74.1784 151.719C74.0957 151.495 73.9917 151.279 73.8637 151.071L67.513 140.898L66.3955 142.517C66.0674 142.995 65.63 143.371 65.1285 143.63L65.1312 143.632Z" fill="black"/>
<path d="M55.6679 144.019L55.5745 144.155L63.9202 144.23L69.2333 152.743C69.5507 152.418 69.9268 152.159 70.3402 151.983L65.1258 143.632C64.6404 143.883 64.0989 144.019 63.5362 144.019H55.6625H55.6679Z" fill="black"/>
<path d="M63.2828 162.199H55.2892L49.7361 153.175H49.3547L48.8986 153.837L54.6731 163.22H63.1895C63.1895 162.807 63.2695 162.396 63.4189 162.004L63.2855 162.199H63.2828Z" fill="black"/>
<path d="M52.438 148.705L49.352 153.178H49.7361L49.6854 153.098L52.438 148.705Z" fill="black"/>
<path d="M48.7918 153.989L48.8958 153.84L48.4878 153.178L48.269 152.821L53.8142 143.963C53.1634 143.851 52.5633 143.557 52.0778 143.117L45.9379 152.021H44.8977C44.6896 152.901 44.8283 153.842 45.3164 154.637L45.8392 155.488H45.9379C47.0768 155.488 48.1464 154.928 48.7918 153.989Z" fill="black"/>
<path d="M45.4099 151.258H45.1778C45.0551 151.503 44.9618 151.759 44.8978 152.021H45.938L52.0779 143.117C51.8565 142.917 51.6618 142.688 51.4938 142.432L45.4072 151.258H45.4099Z" fill="black"/>
<path d="M48.4904 153.178L48.8958 153.84L49.3519 153.178H48.4904Z" fill="black"/>
<path d="M52.438 148.705L55.2865 144.155H55.5746L55.668 144.022H54.4037C54.2037 144.022 54.0089 143.998 53.8142 143.966L48.2691 152.823L48.4878 153.181H49.352L52.438 148.708V148.705Z" fill="black"/>
<path d="M64.5711 139.218C64.5711 139.218 64.5337 139.218 64.4617 139.218L63.5415 140.552H56.3187C56.5534 141.218 56.5774 141.936 56.3961 142.611L64.5391 142.685L65.1312 143.632C65.63 143.373 66.0674 142.997 66.3981 142.52L67.5157 140.901L67.4837 140.85C66.8569 139.845 65.758 139.229 64.5738 139.218H64.5711Z" fill="black"/>
<path d="M55.668 144.019H63.5416C64.1017 144.019 64.6458 143.883 65.1312 143.632L64.5391 142.685L56.3961 142.611C56.2948 142.984 56.1321 143.344 55.9054 143.675L55.668 144.019Z" fill="black"/>
<path d="M56.396 142.613C56.5774 141.938 56.5561 141.218 56.3187 140.554H54.4036L53.6301 139.298C53.0594 139.477 52.5446 139.802 52.1338 140.245L53.0487 141.712L52.8433 142.01L52.0778 143.12C52.5633 143.56 53.166 143.854 53.8142 143.966L54.6704 142.6L56.396 142.616V142.613Z" fill="black"/>
<path d="M51.4804 142.008L51.6271 142.243L51.4964 142.435C51.6618 142.691 51.8592 142.92 52.0805 143.12L52.846 142.01H51.4831L51.4804 142.008Z" fill="black"/>
<path d="M51.2164 141.581L51.4804 142.005H52.8434L53.0487 141.706L52.1339 140.239C51.9872 140.4 51.8485 140.568 51.7311 140.754L51.2137 141.578L51.2164 141.581Z" fill="black"/>
<path d="M55.6679 144.019L55.9053 143.675C56.132 143.344 56.2947 142.984 56.3961 142.611L54.6704 142.595L53.8142 143.96C54.0062 143.992 54.2036 144.016 54.4037 144.016H55.6679V144.019Z" fill="black"/>
<path d="M84.5085 163.255L84.5432 163.311L78.926 171.457H71.7086L67.2916 164.279L66.6622 165.191C66.1768 165.895 65.4539 166.386 64.6404 166.589L68.756 173.276C69.3881 174.3 70.5056 174.927 71.7086 174.927H78.926C80.0649 174.927 81.1345 174.366 81.78 173.428L87.3971 165.282C87.8185 164.671 88.0212 163.956 88.0079 163.247L84.5085 163.258V163.255Z" fill="black"/>
<path d="M74.3731 153.178C74.3277 153.776 74.133 154.365 73.7783 154.88L73.5676 155.184L79.5048 155.237L84.5111 163.258L88.0105 163.247C87.9999 162.633 87.8265 162.023 87.4878 161.478L82.4467 153.402C81.8199 152.397 80.721 151.781 79.5368 151.77C79.5368 151.77 76.4722 151.743 74.1784 151.722C74.3491 152.191 74.4104 152.687 74.3731 153.178Z" fill="black"/>
<path d="M70.343 151.983L70.9217 152.909L70.7377 153.175H74.3731C74.4105 152.685 74.3491 152.189 74.1784 151.719C72.8101 151.706 71.7139 151.698 71.7112 151.698C71.2338 151.698 70.7724 151.799 70.3456 151.983H70.343Z" fill="black"/>
<path d="M66.6621 165.191L67.2916 164.279L66.6995 163.316L66.6541 163.242L71.7112 155.165L73.5676 155.181L73.7783 154.877C74.133 154.362 74.3277 153.776 74.373 153.175H70.7376L63.8109 163.22H63.1894C63.1868 163.858 63.3575 164.492 63.7042 165.055L64.6457 166.584C65.4592 166.384 66.182 165.89 66.6675 165.186L66.6621 165.191Z" fill="black"/>
<path d="M63.4161 162.007C63.2668 162.399 63.1894 162.809 63.1868 163.223H63.8082L70.735 153.178H69.5027L63.4135 162.007H63.4161Z" fill="black"/>
<path d="M70.343 151.983C69.9296 152.162 69.5535 152.421 69.2361 152.743L69.5055 153.175H70.7377L70.9218 152.909L70.343 151.983Z" fill="black"/>
<path d="M50.8963 118.995L51.219 118.478L45.8766 109.919L37.5895 109.844L32.3218 118.256L37.8829 127.162H45.2631L50.8963 118.995Z" fill="#FDC70D"/>
<path d="M32.2151 118.427L37.5895 127.162H37.8829L32.3218 118.256L32.2151 118.427Z" fill="#FDC70D"/>
<path d="M51.235 118.502L51.219 118.478L50.8962 118.995L51.235 118.502Z" fill="#FDC70D"/>
<path d="M51.091 141.781L45.8713 133.299L37.8643 133.227L33.0153 140.258L31.9218 142.008H50.9497L51.091 141.781Z" fill="#FDC70D"/>
<path d="M50.9497 142.008H31.9217L31.8231 142.165L37.4189 151.26H45.1751C45.2231 151.167 45.2738 151.074 45.3298 150.983L50.9497 142.008Z" fill="#F3A207"/>
<path d="M37.4189 133.225L33.0153 140.258L37.8643 133.227L37.4189 133.225Z" fill="#FDC70D"/>
<path d="M51.2163 141.581L46.0473 133.302L45.8712 133.299L51.091 141.781L51.2163 141.581Z" fill="#FDC70D"/>
<path d="M51.2296 142.008H50.9523L45.3324 150.983C45.2764 151.074 45.2257 151.167 45.1777 151.26H45.4098L51.4964 142.435C51.483 142.413 51.4644 142.395 51.451 142.373L51.227 142.01L51.2296 142.008Z" fill="#F3A207"/>
<path d="M51.2297 142.008L51.091 141.781L50.9496 142.008H51.2297Z" fill="#FDC70D"/>
<path d="M51.0909 141.781L51.2296 142.008H51.4804L51.2163 141.581L51.0909 141.781Z" fill="#FDC70D"/>
<path d="M51.451 142.368C51.4644 142.389 51.4804 142.408 51.4964 142.429L51.6271 142.237L51.4804 142.003H51.227L51.451 142.365V142.368Z" fill="#F3A207"/>
<path d="M33.5194 130.101L28.0943 121.281L20.0767 121.209L14.4728 130.16L14.5208 130.237H33.4341L33.5194 130.101Z" fill="#FDC70D"/>
<path d="M14.5208 130.237L20.0766 139.269H27.7795L33.434 130.237H14.5208Z" fill="#F3A207"/>
<path d="M33.8634 129.555C33.8634 129.555 33.8688 129.547 33.8714 129.544L28.7184 121.289L28.0942 121.284L33.522 130.104L33.8634 129.557V129.555Z" fill="#FDC70D"/>
<path d="M33.6047 130.237L33.5194 130.101L33.434 130.237H33.6047Z" fill="#FDC70D"/>
<path d="M33.6047 130.237H33.434L27.7822 139.266H28.0782L33.9434 130.763C33.9141 130.718 33.8794 130.678 33.8501 130.632L33.6074 130.237H33.6047Z" fill="#F3A207"/>
<path d="M33.8634 129.555L33.522 130.101L33.6074 130.24H34.3062L33.8714 129.544C33.8714 129.544 33.8661 129.552 33.8634 129.555Z" fill="#FDC70D"/>
<path d="M33.8474 130.632C33.8767 130.678 33.9114 130.72 33.9407 130.763L34.3035 130.237H33.6047L33.8474 130.632Z" fill="#F3A207"/>
<path d="M55.5346 139.138C57.7617 139.159 63.5976 139.21 64.4618 139.218L70.655 130.24H49.9814L55.5346 139.138Z" fill="#F3A207"/>
<path d="M49.9814 130.237H70.655L70.599 130.149H49.9254L49.9814 130.237Z" fill="#F3A207"/>
<path d="M49.5947 129.624C49.5947 129.624 49.6053 129.64 49.6107 129.648L49.9254 130.149H70.599L64.2723 120.014L56.204 119.942C56.1213 120.126 56.0227 120.302 55.9053 120.473L49.5947 129.624Z" fill="#FDC70D"/>
<path d="M49.5947 129.624L55.9053 120.473C56.0227 120.305 56.1214 120.126 56.204 119.942L54.4037 119.926L48.8505 128.797C49.1359 129.029 49.3893 129.304 49.5947 129.624Z" fill="#FDC70D"/>
<path d="M49.6107 129.648C49.6107 129.648 49.6 129.632 49.5947 129.624L49.2319 130.149H49.9254L49.6107 129.648Z" fill="#FDC70D"/>
<path d="M49.9814 130.237L49.9254 130.149H49.2319L49.1706 130.237H49.9814Z" fill="#F3A207"/>
<path d="M55.5345 139.138L49.9814 130.24H49.1706L48.7945 130.787C48.7251 130.888 48.6505 130.982 48.5704 131.072L53.6328 139.298C53.9662 139.194 54.3129 139.133 54.673 139.133C54.673 139.133 55.0038 139.135 55.5372 139.141L55.5345 139.138Z" fill="#F3A207"/>
<path d="M48.7918 130.784L49.1679 130.237H48.0557L48.5678 131.07C48.6451 130.979 48.7225 130.886 48.7918 130.784Z" fill="#F3A207"/>
<path d="M49.232 130.149H48.0024L48.0584 130.237H49.1706L49.232 130.149Z" fill="#F3A207"/>
<path d="M49.232 130.149L49.5947 129.624C49.392 129.304 49.1386 129.029 48.8506 128.797L48.0024 130.152H49.2293L49.232 130.149Z" fill="#FDC70D"/>
<path d="M55.9933 139.871C56.1293 140.087 56.2386 140.317 56.3213 140.552H63.5441L64.4643 139.218C63.5975 139.21 57.7616 139.157 55.5372 139.138L55.9959 139.871H55.9933Z" fill="#F3A207"/>
<path d="M55.5346 139.138C55.0011 139.133 54.6731 139.13 54.6704 139.13C54.313 139.13 53.9636 139.191 53.6302 139.295L54.4037 140.552H56.3187C56.2361 140.317 56.1267 140.087 55.9907 139.871L55.5319 139.138H55.5346Z" fill="#F3A207"/>
<path d="M55.5746 144.155L52.438 148.703L49.688 153.098L49.7361 153.178H68.8787C68.988 153.023 69.108 152.879 69.2361 152.746L63.923 144.232L55.5773 144.158L55.5746 144.155Z" fill="#FDC70D"/>
<path d="M68.772 153.327C68.804 153.274 68.844 153.229 68.8787 153.178H49.7361L55.2892 162.201H63.2829L63.4162 162.007C63.4962 161.799 63.5949 161.596 63.715 161.404L68.772 153.327Z" fill="#F3A207"/>
<path d="M55.2865 144.152L52.4379 148.705L55.5746 144.155L55.2865 144.152Z" fill="#FDC70D"/>
<path d="M69.5055 153.178L69.2361 152.746C69.1054 152.879 68.988 153.026 68.8787 153.178H69.5055Z" fill="#FDC70D"/>
<path d="M68.772 153.327L63.7149 161.404C63.5949 161.596 63.4962 161.799 63.4162 162.007L69.5054 153.178H68.8787C68.844 153.229 68.804 153.274 68.772 153.327Z" fill="#F3A207"/>
<path d="M73.5649 155.184L67.9611 163.311L84.5085 163.255L79.5048 155.237L73.5649 155.184Z" fill="#FDC70D"/>
<path d="M67.2916 164.279L71.7085 171.457H78.926L84.5432 163.311L84.5085 163.255L67.9611 163.311L67.2916 164.279Z" fill="#F3A207"/>
<path d="M73.5649 155.184L71.7085 155.168L66.6542 163.242L66.6995 163.316L67.9611 163.311L73.5649 155.184Z" fill="#FDC70D"/>
<path d="M66.6995 163.316L67.2916 164.279L67.9611 163.311L66.6995 163.316Z" fill="#F3A207"/>
<path d="M229.202 42.0033C229.429 42.0753 229.552 42.0459 229.674 41.8432C230.384 40.6617 231.104 39.4854 231.821 38.3065C231.875 38.2185 231.915 38.1198 231.973 37.9998C230.605 37.4263 229.277 36.8422 228.01 36.0367L229.173 41.9926C229.173 41.9926 229.194 42.0006 229.205 42.0033H229.202Z" fill="#F3A207"/>
<path d="M249.694 37.9945C249.884 38.3545 250.041 38.7066 250.244 39.032C250.836 39.9895 251.447 40.9364 252.044 41.8939C252.148 42.0593 252.25 42.0753 252.426 42.0193C252.604 41.9633 252.778 41.8966 252.956 41.8379L253.65 36.05C252.394 36.8502 251.081 37.4423 249.697 37.9945H249.694Z" fill="#F3A207"/>
<path d="M264.129 31.1851C264.073 26.8375 263.308 22.618 261.849 18.5265C260.673 15.2245 259.072 12.1332 257.133 9.21522C257.053 9.0952 256.912 8.99918 256.779 8.93516C254.314 7.78826 251.748 6.94275 249.094 6.3533C248.641 6.25195 248.182 6.17193 247.729 6.07058C247.513 6.02257 247.387 6.08658 247.291 6.28929C246.971 6.97476 246.627 7.64957 246.315 8.34038C246.224 8.54308 246.112 8.59643 245.915 8.56442C244.253 8.2897 242.573 8.19101 240.895 8.18301C239.674 8.17768 238.452 8.30303 237.231 8.38839C236.729 8.42306 236.228 8.50307 235.729 8.56976C235.545 8.59376 235.454 8.52708 235.377 8.35905C235.054 7.6629 234.705 6.97743 234.379 6.28395C234.281 6.07324 234.145 6.03323 233.937 6.07324C230.797 6.6707 227.762 7.60689 224.863 8.95383C224.729 9.01518 224.599 9.12454 224.519 9.24456C221.742 13.4588 219.654 17.977 218.544 22.914C218.189 24.4904 217.973 26.0987 217.747 27.699C217.624 28.5632 217.616 29.4407 217.552 30.3129C217.544 30.4356 217.509 30.5583 217.488 30.681V32.3746C217.504 32.4493 217.533 32.524 217.538 32.5987C217.589 33.6176 217.643 34.6364 217.683 35.6553C217.693 35.914 217.765 36.1007 217.992 36.2661C221.411 38.776 225.129 40.7017 229.17 41.9953L228.007 36.0394C228.343 35.77 228.637 35.5193 228.951 35.2979C229.018 35.2526 229.17 35.2979 229.272 35.3353C230.6 35.8287 231.909 36.3755 233.254 36.8129C234.713 37.285 236.222 37.5517 237.748 37.7384C239.231 37.9198 240.717 37.9465 242.2 37.8904C243.594 37.8371 244.979 37.6477 246.35 37.357C248.419 36.9196 250.412 36.2581 252.33 35.3673C252.578 35.2526 252.748 35.2579 252.948 35.4473C253.156 35.6473 253.397 35.8153 253.653 36.0207C253.653 36.0207 253.669 36.0314 253.674 36.0394C253.666 36.0447 253.655 36.0501 253.647 36.0554L252.954 41.8433C256.851 40.5417 260.454 38.6693 263.753 36.2048C263.879 36.1114 263.977 35.906 263.988 35.746C264.055 34.7378 264.092 33.7296 264.143 32.7187C264.151 32.5854 264.177 32.452 264.196 32.3186V31.7932C264.172 31.5931 264.132 31.3904 264.129 31.1904V31.1851ZM235.467 29.8275C233.726 31.1691 231.531 30.905 230.064 29.2353C228.386 27.3283 228.453 24.1276 230.21 22.2979C232.08 20.3508 235.142 20.7269 236.556 23.0767C237.081 23.9489 237.305 24.7998 237.305 26.4614C237.279 27.491 236.734 28.8513 235.467 29.8275ZM250.956 29.8648C249.484 30.9984 247.438 30.9397 246.048 29.6994C244.96 28.7286 244.419 27.499 244.381 26.0453C244.381 25.968 244.381 25.8906 244.381 25.8106C244.309 24.1143 245.331 22.0152 247.233 21.295C248.745 20.7216 250.399 21.1243 251.556 22.3913C253.426 24.4343 253.266 28.0884 250.956 29.8648Z" fill="#FDC70D"/>
</svg>
